<svg width="121" height="38" viewBox="0 0 121 38" fill="none" xmlns="http://www.w3.org/2000/svg">
<g clip-path="url(#clip0_1_2)">
<path d="M49.608 12.4L44.154 25H41.274L35.838 12.4H38.988L42.822 21.4L46.71 12.4H49.608ZM56.114 12.4C57.23 12.4 58.196 12.586 59.012 12.958C59.84 13.33 60.476 13.858 60.92 14.542C61.364 15.226 61.586 16.036 61.586 16.972C61.586 17.896 61.364 18.706 60.92 19.402C60.476 20.086 59.84 20.614 59.012 20.986C58.196 21.346 57.23 21.526 56.114 21.526H53.576V25H50.66V12.4H56.114ZM55.952 19.15C56.828 19.15 57.494 18.964 57.95 18.592C58.406 18.208 58.634 17.668 58.634 16.972C58.634 16.264 58.406 15.724 57.95 15.352C57.494 14.968 56.828 14.776 55.952 14.776H53.576V19.15H55.952ZM75.2238 12.4V25H72.8298L66.5478 17.35V25H63.6678V12.4H66.0798L72.3438 20.05V12.4H75.2238ZM77.6469 18.808H82.7409V21.058H77.6469V18.808ZM93.7326 18.502H96.3966V23.614C95.7126 24.13 94.9206 24.526 94.0206 24.802C93.1206 25.078 92.2146 25.216 91.3026 25.216C89.9946 25.216 88.8186 24.94 87.7746 24.388C86.7306 23.824 85.9086 23.05 85.3086 22.066C84.7206 21.07 84.4266 19.948 84.4266 18.7C84.4266 17.452 84.7206 16.336 85.3086 15.352C85.9086 14.356 86.7366 13.582 87.7926 13.03C88.8486 12.466 90.0366 12.184 91.3566 12.184C92.4606 12.184 93.4626 12.37 94.3626 12.742C95.2626 13.114 96.0186 13.654 96.6306 14.362L94.7586 16.09C93.8586 15.142 92.7726 14.668 91.5006 14.668C90.6966 14.668 89.9826 14.836 89.3586 15.172C88.7346 15.508 88.2486 15.982 87.9006 16.594C87.5526 17.206 87.3786 17.908 87.3786 18.7C87.3786 19.48 87.5526 20.176 87.9006 20.788C88.2486 21.4 88.7286 21.88 89.3406 22.228C89.9646 22.564 90.6726 22.732 91.4646 22.732C92.3046 22.732 93.0606 22.552 93.7326 22.192V18.502ZM99.1053 12.4H102.021V25H99.1053V12.4ZM116.568 12.4V25H114.174L107.892 17.35V25H105.012V12.4H107.424L113.688 20.05V12.4H116.568Z" fill="white"/>
<path d="M18 29C16.6333 29 15.3417 28.7375 14.125 28.2125C12.9083 27.6875 11.8458 26.9708 10.9375 26.0625C10.0292 25.1542 9.3125 24.0917 8.7875 22.875C8.2625 21.6583 8 20.3667 8 19C8 17.6167 8.2625 16.3208 8.7875 15.1125C9.3125 13.9042 10.0292 12.8458 10.9375 11.9375C11.8458 11.0292 12.9083 10.3125 14.125 9.7875C15.3417 9.2625 16.6333 9 18 9C18.5333 9 19.0458 9.0375 19.5375 9.1125C20.0292 9.1875 20.5167 9.3 21 9.45V12C21 12.55 20.8042 13.0208 20.4125 13.4125C20.0208 13.8042 19.55 14 19 14H17V16C17 16.2833 16.9042 16.5208 16.7125 16.7125C16.5208 16.9042 16.2833 17 16 17H14V19H20C20.2833 19 20.5208 19.0958 20.7125 19.2875C20.9042 19.4792 21 19.7167 21 20V23H22C22.45 23 22.8458 23.1333 23.1875 23.4C23.5292 23.6667 23.7667 24 23.9 24.4C24.55 23.6667 25.0625 22.8458 25.4375 21.9375C25.8125 21.0292 26 20.05 26 19C26 18.8167 25.9917 18.65 25.975 18.5C25.9583 18.35 25.9333 18.1833 25.9 18H27.95C27.9833 18.1833 28 18.35 28 18.5V19C28 20.3667 27.7375 21.6583 27.2125 22.875C26.6875 24.0917 25.9708 25.1542 25.0625 26.0625C24.1542 26.9708 23.0958 27.6875 21.8875 28.2125C20.6792 28.7375 19.3833 29 18 29ZM17 26.95V25C16.45 25 15.9792 24.8042 15.5875 24.4125C15.1958 24.0208 15 23.55 15 23V22L10.2 17.2C10.15 17.5 10.1042 17.8 10.0625 18.1C10.0208 18.4 10 18.7 10 19C10 21.0667 10.6708 22.8458 12.0125 24.3375C13.3542 25.8292 15.0167 26.7 17 26.95ZM24 16C23.7167 16 23.4792 15.9042 23.2875 15.7125C23.0958 15.5208 23 15.2833 23 15V12C23 11.7167 23.0958 11.4792 23.2875 11.2875C23.4792 11.0958 23.7167 11 24 11V10C24 9.45 24.1958 8.97917 24.5875 8.5875C24.9792 8.19583 25.45 8 26 8C26.55 8 27.0208 8.19583 27.4125 8.5875C27.8042 8.97917 28 9.45 28 10V11C28.2833 11 28.5208 11.0958 28.7125 11.2875C28.9042 11.4792 29 11.7167 29 12V15C29 15.2833 28.9042 15.5208 28.7125 15.7125C28.5208 15.9042 28.2833 16 28 16H24ZM25 11H27V10C27 9.71667 26.9042 9.47917 26.7125 9.2875C26.5208 9.09583 26.2833 9 26 9C25.7167 9 25.4792 9.09583 25.2875 9.2875C25.0958 9.47917 25 9.71667 25 10V11Z" fill="white"/>
</g>
<defs>
<clipPath id="clip0_1_2">
<rect width="121" height="38" fill="white"/>
</clipPath>
</defs>
</svg>
