<svg width="150" height="38" viewBox="0 0 150 38" fill="none" xmlns="http://www.w3.org/2000/svg">
<path d="M50.608 12.4L45.154 25H42.274L36.838 12.4H39.988L43.822 21.4L47.71 12.4H50.608ZM57.114 12.4C58.23 12.4 59.196 12.586 60.012 12.958C60.84 13.33 61.476 13.858 61.92 14.542C62.364 15.226 62.586 16.036 62.586 16.972C62.586 17.896 62.364 18.706 61.92 19.402C61.476 20.086 60.84 20.614 60.012 20.986C59.196 21.346 58.23 21.526 57.114 21.526H54.576V25H51.66V12.4H57.114ZM56.952 19.15C57.828 19.15 58.494 18.964 58.95 18.592C59.406 18.208 59.634 17.668 59.634 16.972C59.634 16.264 59.406 15.724 58.95 15.352C58.494 14.968 57.828 14.776 56.952 14.776H54.576V19.15H56.952ZM76.2238 12.4V25H73.8298L67.5478 17.35V25H64.6678V12.4H67.0798L73.3438 20.05V12.4H76.2238ZM78.6469 18.808H83.7409V21.058H78.6469V18.808ZM86.1483 12.4H89.0643V22.624H95.3823V25H86.1483V12.4ZM106.499 15.316V25H103.835V23.848C103.463 24.268 103.019 24.592 102.503 24.82C101.987 25.036 101.429 25.144 100.829 25.144C99.5573 25.144 98.5493 24.778 97.8053 24.046C97.0613 23.314 96.6893 22.228 96.6893 20.788V15.316H99.4973V20.374C99.4973 21.934 100.151 22.714 101.459 22.714C102.131 22.714 102.671 22.498 103.079 22.066C103.487 21.622 103.691 20.968 103.691 20.104V15.316H106.499ZM113.781 25.144C112.749 25.144 111.819 24.934 110.991 24.514C110.175 24.082 109.533 23.488 109.065 22.732C108.609 21.976 108.381 21.118 108.381 20.158C108.381 19.198 108.609 18.34 109.065 17.584C109.533 16.828 110.175 16.24 110.991 15.82C111.819 15.388 112.749 15.172 113.781 15.172C114.801 15.172 115.689 15.388 116.445 15.82C117.213 16.24 117.771 16.846 118.119 17.638L115.941 18.808C115.437 17.92 114.711 17.476 113.763 17.476C113.031 17.476 112.425 17.716 111.945 18.196C111.465 18.676 111.225 19.33 111.225 20.158C111.225 20.986 111.465 21.64 111.945 22.12C112.425 22.6 113.031 22.84 113.763 22.84C114.723 22.84 115.449 22.396 115.941 21.508L118.119 22.696C117.771 23.464 117.213 24.064 116.445 24.496C115.689 24.928 114.801 25.144 113.781 25.144ZM123.823 21.202L122.473 22.534V25H119.665V11.644H122.473V19.204L126.577 15.316H129.925L125.893 19.42L130.285 25H126.883L123.823 21.202ZM140.597 15.316L136.223 25.594C135.779 26.71 135.227 27.496 134.567 27.952C133.919 28.408 133.133 28.636 132.209 28.636C131.705 28.636 131.207 28.558 130.715 28.402C130.223 28.246 129.821 28.03 129.509 27.754L130.535 25.756C130.751 25.948 130.997 26.098 131.273 26.206C131.561 26.314 131.843 26.368 132.119 26.368C132.503 26.368 132.815 26.272 133.055 26.08C133.295 25.9 133.511 25.594 133.703 25.162L133.739 25.072L129.545 15.316H132.443L135.161 21.886L137.897 15.316H140.597Z" fill="white"/>
<path d="M18 29C16.6333 29 15.3417 28.7375 14.125 28.2125C12.9083 27.6875 11.8458 26.9708 10.9375 26.0625C10.0292 25.1542 9.3125 24.0917 8.7875 22.875C8.2625 21.6583 8 20.3667 8 19C8 17.6167 8.2625 16.3208 8.7875 15.1125C9.3125 13.9042 10.0292 12.8458 10.9375 11.9375C11.8458 11.0292 12.9083 10.3125 14.125 9.7875C15.3417 9.2625 16.6333 9 18 9C18.5333 9 19.0458 9.0375 19.5375 9.1125C20.0292 9.1875 20.5167 9.3 21 9.45V12C21 12.55 20.8042 13.0208 20.4125 13.4125C20.0208 13.8042 19.55 14 19 14H17V16C17 16.2833 16.9042 16.5208 16.7125 16.7125C16.5208 16.9042 16.2833 17 16 17H14V19H20C20.2833 19 20.5208 19.0958 20.7125 19.2875C20.9042 19.4792 21 19.7167 21 20V23H22C22.45 23 22.8458 23.1333 23.1875 23.4C23.5292 23.6667 23.7667 24 23.9 24.4C24.55 23.6667 25.0625 22.8458 25.4375 21.9375C25.8125 21.0292 26 20.05 26 19C26 18.8167 25.9917 18.65 25.975 18.5C25.9583 18.35 25.9333 18.1833 25.9 18H27.95C27.9833 18.1833 28 18.35 28 18.5V19C28 20.3667 27.7375 21.6583 27.2125 22.875C26.6875 24.0917 25.9708 25.1542 25.0625 26.0625C24.1542 26.9708 23.0958 27.6875 21.8875 28.2125C20.6792 28.7375 19.3833 29 18 29ZM17 26.95V25C16.45 25 15.9792 24.8042 15.5875 24.4125C15.1958 24.0208 15 23.55 15 23V22L10.2 17.2C10.15 17.5 10.1042 17.8 10.0625 18.1C10.0208 18.4 10 18.7 10 19C10 21.0667 10.6708 22.8458 12.0125 24.3375C13.3542 25.8292 15.0167 26.7 17 26.95ZM24 16C23.7167 16 23.4792 15.9042 23.2875 15.7125C23.0958 15.5208 23 15.2833 23 15V12C23 11.7167 23.0958 11.4792 23.2875 11.2875C23.4792 11.0958 23.7167 11 24 11V10C24 9.45 24.1958 8.97917 24.5875 8.5875C24.9792 8.19583 25.45 8 26 8C26.55 8 27.0208 8.19583 27.4125 8.5875C27.8042 8.97917 28 9.45 28 10V11C28.2833 11 28.5208 11.0958 28.7125 11.2875C28.9042 11.4792 29 11.7167 29 12V15C29 15.2833 28.9042 15.5208 28.7125 15.7125C28.5208 15.9042 28.2833 16 28 16H24ZM25 11H27V10C27 9.71667 26.9042 9.47917 26.7125 9.2875C26.5208 9.09583 26.2833 9 26 9C25.7167 9 25.4792 9.09583 25.2875 9.2875C25.0958 9.47917 25 9.71667 25 10V11Z" fill="white"/>
</svg>
