<svg width="100" height="100" viewBox="0 0 100 100" fill="none" xmlns="http://www.w3.org/2000/svg">
<g clip-path="url(#clip0_1_2)">
<rect width="100" height="100" rx="19" fill="black"/>
<path d="M52.1783 9C49.8224 9 47.6983 9.96436 46.3189 11.3438C44.9396 12.7231 44.1583 14.3589 43.6822 15.8359C42.7667 18.6436 42.8033 20.9507 42.8033 21.207V21.3047C42.8033 21.3169 42.8033 21.5 42.8033 21.5H42.901C42.8766 21.7686 42.6446 23.6362 43.6822 25.8945C44.7564 28.2383 47.7228 30.6431 51.8854 30.7773C51.8854 30.8018 51.8854 30.8384 51.8854 30.875L49.0533 30.582C48.8336 32.645 47.9181 32.999 46.3189 33.5117C44.8053 33.9878 43.3771 34 43.1939 34C43.1817 34 42.9986 34 42.9986 34C42.6813 33.9756 33.941 33.3286 27.7643 41.5195L25.6158 44.4492C22.4298 48.6729 24.1388 54.9717 29.1314 56.8516C32.2931 58.0479 36.712 59 42.8033 59V52.75C37.3468 52.75 33.6481 51.8833 31.2799 50.9922C30.0958 50.5405 29.8028 49.2954 30.5963 48.2578L32.8424 45.2305C37.4078 39.188 42.4127 40.25 42.4127 40.25H42.608C42.608 40.25 45.2691 40.3965 48.1744 39.4688C49.2975 39.1147 50.5548 38.5166 51.69 37.6133C52.0807 38.3579 52.5079 39.0537 53.0572 39.4688C53.7896 40.0181 54.7174 40.2256 54.815 40.25H54.9127C55.0714 40.2866 59.8321 41.2388 62.0416 44.9375C62.5055 45.7188 63.1769 48.0625 63.6041 50.6992C64.0313 53.3359 64.3243 56.3267 64.483 58.9023C64.5929 60.6724 63.2501 62.125 61.4557 62.125H50.3229L49.4439 63.6875C49.4439 63.6875 46.0016 69.4858 45.5377 75.9922C45.4645 77.0786 45.4767 78.2627 45.6354 79.4102C44.5245 78.519 43.548 77.5425 42.608 76.4805C39.6295 73.0991 37.6031 68.9487 36.8463 65.25C36.7731 64.8472 36.7975 64.4688 36.7486 64.0781C36.7364 63.9438 36.6632 63.8218 36.651 63.6875C36.5899 63.1626 36.5533 62.6255 36.5533 62.125C36.5533 62.0395 36.5533 61.8564 36.5533 61.7344C34.3316 61.478 32.3175 61.1118 30.401 60.5625C30.3522 61.3926 30.3033 61.9663 30.3033 62.125C30.3033 68.375 33.0865 75.1987 37.9205 80.6797C42.7545 86.1606 49.8346 90.25 58.4283 90.25C59.1607 90.25 59.881 90.1768 60.5768 90.1523C60.9186 90.1645 61.1993 90.25 61.5533 90.25V90.1523C67.8644 89.7861 72.1612 88.3457 75.0299 86.7344C76.69 85.8066 77.8741 84.7935 78.6432 84C79.4122 83.2065 79.9127 82.4375 79.9127 82.4375L74.4439 79.3125C74.4439 79.3125 74.5172 79.3247 74.151 79.7031C73.7848 80.0815 73.1378 80.6309 72.0025 81.2656C69.9273 82.4253 66.131 83.6948 59.9908 83.9023C56.1822 83.6582 54.1559 82.645 53.1549 81.5586C52.0074 80.3257 51.629 78.6045 51.7877 76.3828C52.0196 73.0747 53.3258 70.0474 54.1314 68.375H61.4557C66.7413 68.375 71.0504 63.895 70.733 58.6094C70.5743 55.8994 70.2447 52.689 69.7564 49.7227C69.2682 46.7563 68.67 44.083 67.315 41.8125C64.0313 36.3315 59.1241 34.9033 57.2564 34.4883C57.1954 34.1465 56.9391 32.6572 58.233 28.7266C58.4649 28.2993 60.4181 24.8081 61.1627 20.4258C61.5655 18.1064 61.6998 15.4819 60.2838 13.0039C58.8678 10.5259 55.7794 9 52.1783 9ZM52.1783 15.25C54.3756 15.25 54.5587 15.6772 54.815 16.1289C55.0714 16.5806 55.2789 17.8623 55.0104 19.4492C54.5953 21.8418 53.7164 23.4531 53.1549 24.625H52.1783C49.7491 24.625 49.6759 24.0757 49.3463 23.3555C49.0167 22.6353 49.0533 21.793 49.0533 21.793V21.5C49.0533 21.5 49.0777 19.5225 49.6393 17.7891C49.92 16.9224 50.3229 16.2144 50.7135 15.8359C51.1041 15.4575 51.3482 15.25 52.1783 15.25Z" fill="white"/>
</g>
<defs>
<clipPath id="clip0_1_2">
<rect width="100" height="100" rx="19" fill="white"/>
</clipPath>
</defs>
</svg>
