<svg width="24" height="24" viewBox="0 0 24 24" fill="none" xmlns="http://www.w3.org/2000/svg">
<path d="M0 8.77C0 1.55 1.55 0 8.77 0H15.23C22.45 0 24 1.55 24 8.77V15.23C24 22.45 22.45 24 15.23 24H8.77C1.55 24 0 22.45 0 15.23V8.77Z" fill="#0077FF"/>
<path d="M12.9 24H15.18C22.28 24 23.92 22.52 24 15.72V8.24C23.92 1.47 22.26 0 15.18 0H12.9C5.63999 0 4.07999 1.55 4.07999 8.77V15.23C4.07999 22.45 5.63999 24 12.9 24Z" fill="#FF2B42"/>
<path d="M16.93 9.91999C18.15 10.62 18.75 10.97 18.96 11.43C19.14 11.83 19.14 12.29 18.96 12.68C18.76 13.14 18.15 13.49 16.93 14.19L13.61 16.11C12.4 16.81 11.79 17.16 11.29 17.11C11.0759 17.0863 10.8692 17.018 10.6832 16.9095C10.4972 16.801 10.336 16.6547 10.21 16.48C9.91 16.08 9.91 15.38 9.91 13.98V10.14C9.91 8.73999 9.91 8.03999 10.21 7.63999C10.335 7.46345 10.4957 7.31521 10.6818 7.20494C10.8679 7.09467 11.0751 7.02484 11.29 6.99999C11.79 6.93999 12.39 7.29999 13.61 7.99999L16.93 9.90999V9.91999Z" fill="white"/>
</svg>
