<svg xmlns:xlink="http://www.w3.org/1999/xlink" xmlns="http://www.w3.org/2000/svg" fill="none" viewBox="0 0 107 40" width="107"  height="40" ><g clip-path="url(#a)" fill="#0000EE"><path fill="#FFFFFF" d="m81.068 26.236-6.803-6.725 6.342-6.367a.24.24 0 0 0-.037-.37.242.242 0 0 0-.134-.04H73.71l-5.726 5.925v-5.925H61.85v13.908h6.135v-6.053l5.963 6.056h6.947a.24.24 0 0 0 .24-.286.24.24 0 0 0-.067-.123ZM52.994 12.734v7.16l-6.737-7.16h-5.835v13.912h5.835v-7.16l6.737 7.16h5.847V12.734h-5.847ZM23.82 12.733l-2.839 8.478-2.983-8.478H11.5L8.517 21.21l-2.84-8.478H.242a.242.242 0 0 0-.239.206.24.24 0 0 0 .011.112L4.68 26.645h7.135l2.875-8.155 2.878 8.155h7.133L29.37 13.05a.239.239 0 0 0-.118-.291.242.242 0 0 0-.11-.027h-5.32ZM37.415 12.734H31.28v13.912h6.136V12.734Z"></path><path fill="url(&quot;#b&quot;)" d="m92.799 6.2-6.03 6.011a.683.683 0 0 0 0 .966l6.515 6.495-6.546 6.53a.683.683 0 0 0 0 .967l6.03 6.01a.683.683 0 0 0 .747.149.684.684 0 0 0 .222-.148L106.8 20.158a.685.685 0 0 0 0-.967L93.769 6.2a.687.687 0 0 0-.97 0Z"></path></g><defs><linearGradient id="b" x1="79.941" x2="112.959" y1="24.613" y2="12.338" gradientUnits="userSpaceOnUse"><stop stop-color="#FF9532"></stop><stop offset="0.17" stop-color="#FF8A1C"></stop><stop offset="0.51" stop-color="#FF5B21"></stop><stop offset="0.79" stop-color="#FF5A24"></stop></linearGradient><clipPath id="a"><path fill="#fff" d="M0 6h107v28H0z"></path></clipPath><linearGradient id="b" x1="79.941" x2="112.959" y1="24.613" y2="12.338" gradientUnits="userSpaceOnUse"><stop stop-color="#FF9532"></stop><stop offset="0.17" stop-color="#FF8A1C"></stop><stop offset="0.51" stop-color="#FF5B21"></stop><stop offset="0.79" stop-color="#FF5A24"></stop></linearGradient></defs></svg>