<svg width="100" height="100" viewBox="0 0 100 100" fill="none" xmlns="http://www.w3.org/2000/svg">
<g clip-path="url(#clip0_1_17)">
<rect width="100" height="100" rx="50" fill="white"/>
<path d="M-0.630005 50C-0.630005 21.9247 22.123 -0.833344 50.2033 -0.833344C78.2735 -0.833344 101.037 21.9247 101.037 50C101.037 78.0752 78.2735 100.833 50.2033 100.833C22.123 100.833 -0.630005 78.0752 -0.630005 50Z" fill="#FC3F1D"/>
<path d="M56.71 27.9688H52.013C43.4018 27.9688 38.8726 32.3303 38.8726 38.7607C38.8726 46.0299 42.0039 49.4357 48.4343 53.8023L53.7464 57.381L38.4812 80.1899H27.0742L40.7737 59.7854C32.8946 54.1378 28.4721 48.6529 28.4721 39.3758C28.4721 27.7452 36.58 19.805 51.9571 19.805H67.2223V80.134H56.71V27.9688Z" fill="white"/>
</g>
<defs>
<clipPath id="clip0_1_17">
<rect width="100" height="100" rx="50" fill="white"/>
</clipPath>
</defs>
</svg>
