<?xml version="1.0" ?>
<!DOCTYPE svg  PUBLIC '-//W3C//DTD SVG 1.1//EN'  'http://www.w3.org/Graphics/SVG/1.1/DTD/svg11.dtd'>
<!-- Uploaded to: SVG Repo, www.svgrepo.com, Generator: SVG Repo Mixer Tools -->
<svg fill="#000000" width="800px" height="800px" viewBox="0 0 512 512" version="1.1" xml:space="preserve" xmlns="http://www.w3.org/2000/svg" xmlns:xlink="http://www.w3.org/1999/xlink">
<g id="A_-_75_x2C__book_x2C__bundle_x2C__layout_x2C__report">
<g>
<rect height="26.519" width="26.52" x="196.692" y="336.479"/>
<rect height="26.522" width="26.52" x="196.692" y="278.4"/>
<rect height="62.792" width="162.826" x="196.692" y="121.562"/>
<rect height="26.424" width="26.52" x="196.692" y="220.42"/>
<path d="M132.896,436.85v-26.446c-0.12-0.182-0.238-0.362-0.362-0.541c-0.187-0.271-0.375-0.54-0.569-0.804    c-0.216-0.293-0.438-0.579-0.662-0.863c-0.202-0.258-0.405-0.513-0.614-0.763c-0.231-0.276-0.469-0.546-0.708-0.813    c-0.216-0.242-0.433-0.484-0.656-0.72c-0.246-0.259-0.498-0.51-0.751-0.759c-0.23-0.228-0.461-0.455-0.697-0.676    c-0.26-0.242-0.527-0.475-0.793-0.707c-0.243-0.211-0.485-0.424-0.733-0.627c-0.273-0.225-0.554-0.438-0.834-0.653    c-0.255-0.195-0.508-0.394-0.768-0.58c-0.286-0.206-0.58-0.401-0.872-0.599c-0.266-0.178-0.529-0.358-0.8-0.529    c-0.299-0.188-0.604-0.364-0.909-0.543c-0.275-0.16-0.547-0.324-0.827-0.477c-0.311-0.17-0.629-0.327-0.947-0.487    c-0.282-0.142-0.562-0.289-0.849-0.423c-0.324-0.151-0.656-0.289-0.985-0.43c-0.288-0.123-0.574-0.252-0.866-0.367    c-0.338-0.133-0.683-0.25-1.025-0.372c-0.292-0.104-0.581-0.214-0.875-0.31c-0.355-0.114-0.716-0.212-1.075-0.314    c-0.291-0.084-0.579-0.174-0.873-0.249c-0.372-0.096-0.75-0.172-1.127-0.255c-0.288-0.062-0.573-0.133-0.863-0.189    c-0.397-0.074-0.799-0.131-1.201-0.19c-0.275-0.043-0.547-0.094-0.825-0.129c-0.456-0.058-0.916-0.093-1.376-0.132    c-0.228-0.019-0.452-0.048-0.681-0.063c-0.691-0.043-1.387-0.066-2.086-0.066c-0.674,0-1.345,0.021-2.013,0.063    c-0.224,0.014-0.443,0.042-0.666,0.061c-0.443,0.036-0.886,0.069-1.324,0.123c-0.263,0.032-0.522,0.081-0.785,0.119    c-0.394,0.059-0.789,0.111-1.179,0.185c-0.275,0.051-0.547,0.116-0.821,0.175c-0.371,0.079-0.743,0.153-1.11,0.244    c-0.28,0.07-0.555,0.154-0.833,0.231c-0.355,0.098-0.711,0.192-1.062,0.303c-0.28,0.088-0.555,0.189-0.832,0.284    c-0.341,0.117-0.684,0.232-1.021,0.36c-0.278,0.105-0.551,0.226-0.826,0.339c-0.328,0.136-0.657,0.269-0.98,0.415    c-0.273,0.124-0.541,0.26-0.811,0.392c-0.317,0.153-0.634,0.306-0.946,0.47c-0.267,0.141-0.527,0.293-0.79,0.439    c-0.305,0.173-0.611,0.343-0.91,0.524c-0.26,0.158-0.513,0.326-0.769,0.492c-0.292,0.188-0.585,0.376-0.872,0.574    c-0.251,0.175-0.497,0.358-0.743,0.54c-0.28,0.206-0.56,0.411-0.833,0.626c-0.242,0.19-0.478,0.389-0.714,0.587    c-0.266,0.222-0.533,0.443-0.792,0.674c-0.232,0.207-0.458,0.421-0.684,0.635c-0.252,0.236-0.504,0.476-0.749,0.722    c-0.222,0.222-0.437,0.451-0.651,0.681c-0.237,0.252-0.473,0.506-0.702,0.766c-0.209,0.237-0.413,0.483-0.616,0.728    c-0.221,0.266-0.441,0.534-0.654,0.808c-0.197,0.254-0.388,0.514-0.579,0.773c-0.127,0.174-0.251,0.352-0.375,0.528l-1.338,16.304    c-0.833,10.125,2.745,20.083,10.074,28.039c8.231,8.937,20.372,14.272,32.475,14.272H317.65v-28.119H136.177    C134.365,440.129,132.896,438.66,132.896,436.85z"/>
<path d="M79.755,399.043c0.398-0.354,0.802-0.698,1.213-1.034c0.182-0.147,0.363-0.294,0.547-0.438    c0.438-0.344,0.883-0.679,1.334-1.003c0.136-0.099,0.269-0.2,0.406-0.296c0.583-0.408,1.178-0.801,1.782-1.176    c0.148-0.093,0.3-0.178,0.449-0.268c0.471-0.284,0.947-0.559,1.429-0.822c0.202-0.111,0.405-0.219,0.609-0.325    c0.478-0.251,0.96-0.489,1.448-0.72c0.169-0.08,0.336-0.164,0.507-0.241c0.649-0.295,1.307-0.574,1.973-0.834    c0.13-0.051,0.262-0.095,0.392-0.145c0.545-0.204,1.096-0.399,1.651-0.582c0.217-0.07,0.435-0.137,0.653-0.204    c0.506-0.156,1.017-0.301,1.53-0.436c0.199-0.054,0.396-0.108,0.596-0.158c0.699-0.173,1.403-0.33,2.114-0.465    c0.088-0.017,0.177-0.027,0.265-0.044c0.628-0.113,1.26-0.212,1.895-0.294c0.224-0.03,0.448-0.056,0.673-0.081    c0.529-0.061,1.061-0.109,1.595-0.148c0.22-0.017,0.438-0.034,0.659-0.046c0.734-0.042,1.471-0.069,2.212-0.069    c0.769,0,1.531,0.029,2.292,0.072c0.228,0.014,0.454,0.032,0.681,0.05c0.553,0.041,1.103,0.093,1.651,0.157    c0.231,0.026,0.463,0.053,0.693,0.084c0.664,0.089,1.324,0.193,1.979,0.315c0.083,0.016,0.167,0.027,0.249,0.043    c0.733,0.143,1.459,0.309,2.18,0.492c0.206,0.052,0.409,0.11,0.613,0.166c0.529,0.143,1.055,0.297,1.577,0.463    c0.223,0.07,0.445,0.141,0.665,0.215c0.582,0.195,1.157,0.404,1.726,0.627c0.123,0.048,0.247,0.09,0.369,0.139    c0.685,0.275,1.359,0.572,2.025,0.884c0.176,0.084,0.349,0.173,0.523,0.259c0.5,0.243,0.994,0.496,1.482,0.761    c0.204,0.111,0.408,0.223,0.611,0.338c0.506,0.286,1.004,0.585,1.498,0.895c0.138,0.086,0.279,0.168,0.417,0.256    c0.618,0.399,1.225,0.816,1.821,1.25c0.142,0.104,0.279,0.212,0.419,0.317c0.458,0.344,0.909,0.695,1.354,1.06    c0.182,0.149,0.362,0.301,0.541,0.453c0.429,0.366,0.85,0.741,1.264,1.127c0.139,0.129,0.281,0.254,0.418,0.385    c0.053,0.051,0.108,0.099,0.16,0.148V70.64c0-14.825-12.06-26.887-26.884-26.887c-14.823,0-26.883,12.062-26.883,26.887v328.955    c0.057-0.053,0.116-0.101,0.173-0.153C79.452,399.306,79.604,399.176,79.755,399.043z"/>
<path d="M157.124,48.919V59.37h262.902c1.811,0,3.279,1.469,3.279,3.28v353.913h11.107V48.919H157.124z"/>
<path d="M139.457,65.93v4.71v338.77v24.16h181.474h95.814v-13.727V65.93H153.844H139.457z M368.813,362.791H243.03    c-1.812,0-3.28-1.469-3.28-3.279c0-1.812,1.468-3.28,3.28-3.28h125.783c1.811,0,3.279,1.469,3.279,3.28    C372.092,361.322,370.623,362.791,368.813,362.791z M239.75,342.033c0-1.812,1.468-3.279,3.28-3.279h79.832    c1.811,0,3.279,1.468,3.279,3.279s-1.469,3.28-3.279,3.28H243.03C241.218,345.313,239.75,343.845,239.75,342.033z     M368.813,304.713H243.03c-1.812,0-3.28-1.469-3.28-3.28s1.468-3.28,3.28-3.28h125.783c1.811,0,3.279,1.469,3.279,3.28    S370.623,304.713,368.813,304.713z M239.75,283.954c0-1.813,1.468-3.28,3.28-3.28h79.832c1.811,0,3.279,1.468,3.279,3.28    c0,1.811-1.469,3.279-3.279,3.279H243.03C241.218,287.233,239.75,285.765,239.75,283.954z M372.092,243.357    c0,1.811-1.469,3.28-3.279,3.28H243.03c-1.812,0-3.28-1.469-3.28-3.28c0-1.812,1.468-3.28,3.28-3.28h125.783    C370.623,240.078,372.092,241.545,372.092,243.357z M239.75,225.975c0-1.811,1.468-3.28,3.28-3.28h79.832    c1.811,0,3.279,1.469,3.279,3.28c0,1.812-1.469,3.28-3.279,3.28H243.03C241.218,229.254,239.75,227.787,239.75,225.975z     M190.132,118.282c0-1.811,1.468-3.28,3.28-3.28h169.385c1.811,0,3.279,1.469,3.279,3.28v69.352c0,1.812-1.469,3.28-3.279,3.28    H193.412c-1.812,0-3.28-1.468-3.28-3.28V118.282z M190.132,217.141c0-1.811,1.468-3.28,3.28-3.28h33.079    c1.812,0,3.28,1.469,3.28,3.28v32.983c0,1.811-1.468,3.28-3.28,3.28h-33.079c-1.812,0-3.28-1.469-3.28-3.28V217.141z     M190.132,275.121c0-1.813,1.468-3.28,3.28-3.28h33.079c1.812,0,3.28,1.468,3.28,3.28v33.082c0,1.811-1.468,3.279-3.28,3.279    h-33.079c-1.812,0-3.28-1.469-3.28-3.279V275.121z M190.132,333.199c0-1.811,1.468-3.279,3.28-3.279h33.079    c1.812,0,3.28,1.469,3.28,3.279v33.079c0,1.811-1.468,3.279-3.28,3.279h-33.079c-1.812,0-3.28-1.469-3.28-3.279V333.199z"/>
</g>
</g>
<g id="Layer_1"/>
</svg>