<svg width="100" height="100" viewBox="0 0 100 100" fill="none" xmlns="http://www.w3.org/2000/svg">
<rect width="100" height="100" rx="50" fill="white"/>
<path d="M77.872 50.829H75.152C75.1079 50.832 75.0664 50.8509 75.0352 50.8822C75.0039 50.9134 74.985 50.9549 74.982 50.999V59.629C74.388 59.799 73.792 59.884 73.113 59.884C71.328 59.884 70.903 59.332 70.903 56.951V50.999C70.9 50.9549 70.8811 50.9134 70.8498 50.8822C70.8186 50.8509 70.7771 50.832 70.733 50.829H68.015C67.9709 50.832 67.9294 50.8509 67.8982 50.8822C67.8669 50.9134 67.848 50.9549 67.845 50.999V57.249C67.845 61.159 69.162 62.648 72.518 62.648C74.43 62.648 76.597 62.138 77.872 61.67C77.914 61.627 77.956 61.585 77.956 61.542V51C78.041 50.915 77.956 50.83 77.872 50.83V50.829ZM20.259 50.872H17.497C17.412 50.872 17.37 50.914 17.37 50.999C16.945 52.699 16.053 55.59 14.863 58.609L12.102 50.957C12.059 50.914 12.017 50.872 11.974 50.872H9.17C9.127 50.872 9.085 50.914 9.042 50.957C9 50.999 9 51.042 9.042 51.084L13.206 62.478C12.8362 63.2566 12.4393 64.0221 12.016 64.773C11.719 65.283 11.464 65.793 11.209 66.346C11.167 66.389 11.167 66.431 11.209 66.474C11.252 66.516 11.294 66.559 11.337 66.559H14.353C14.396 66.559 14.481 66.516 14.481 66.474C15.1082 65.2492 15.6892 64.0013 16.223 62.733C18.007 58.566 19.409 54.655 20.472 51.084C20.472 51.042 20.472 50.999 20.429 50.957C20.344 50.872 20.302 50.872 20.259 50.872ZM30.159 59.629C30.1576 59.6069 30.1482 59.5861 30.1325 59.5705C30.1169 59.5548 30.0961 59.5454 30.074 59.544H29.946C29.266 59.799 28.034 59.969 27.184 59.969C25.273 59.969 24.38 59.459 24.38 56.569C24.38 54.23 24.678 53.167 27.184 53.167C27.907 53.167 28.544 53.252 29.394 53.507C29.479 53.507 29.521 53.507 29.564 53.422L30.668 51.212V51.084C30.6666 51.0619 30.6572 51.0411 30.6415 51.0255C30.6259 51.0098 30.6051 51.0004 30.583 50.999C29.4119 50.6431 28.1959 50.4569 26.972 50.446C23.021 50.446 21.236 52.317 21.236 56.526C21.236 60.777 23.021 62.69 26.972 62.69C27.949 62.69 29.946 62.478 30.881 62.095C30.966 62.052 31.008 61.967 30.966 61.882L30.159 59.629ZM56.033 50.872H53.272C53.187 50.872 53.144 50.914 53.144 50.999C52.719 52.742 51.827 55.59 50.637 58.609L47.876 50.957C47.833 50.914 47.791 50.872 47.748 50.872H44.944C44.902 50.872 44.859 50.914 44.817 50.957C44.774 50.999 44.774 51.042 44.817 51.084L48.98 62.478C48.6102 63.2566 48.2133 64.0221 47.79 64.773C47.493 65.283 47.238 65.793 46.983 66.346C46.941 66.389 46.941 66.431 46.983 66.474C47.026 66.516 47.068 66.559 47.111 66.559H50.127C50.17 66.559 50.255 66.516 50.255 66.474C50.8822 65.2492 51.4632 64.0013 51.997 62.733C53.739 58.566 55.183 54.655 56.246 51.084C56.246 51.042 56.246 50.999 56.203 50.957C56.118 50.872 56.076 50.872 56.033 50.872ZM66.23 50.829H58.2C58.1559 50.832 58.1144 50.8509 58.0832 50.8822C58.0519 50.9134 58.033 50.9549 58.03 50.999V62.18C58.03 62.265 58.115 62.35 58.2 62.35H60.92C61.004 62.35 61.09 62.265 61.09 62.18V53.507H65.295C65.338 53.507 65.423 53.465 65.423 53.422C65.763 52.657 66.06 51.849 66.4 51.042V50.914C66.315 50.872 66.273 50.829 66.23 50.829Z" fill="#EF3E58"/>
<path d="M23.488 33.654C19.579 33.654 18.05 35.354 18.05 39.648C18.05 44.027 19.58 45.728 23.488 45.728C27.439 45.728 28.968 44.027 28.968 39.648C28.968 35.354 27.439 33.654 23.488 33.654ZM23.488 43.262C21.704 43.262 21.151 42.794 21.151 39.733C21.151 36.503 21.746 36.205 23.488 36.205C25.273 36.205 25.868 36.502 25.868 39.733C25.868 42.752 25.315 43.262 23.488 43.262ZM39.846 42.794C39.8446 42.7719 39.8352 42.7511 39.8195 42.7355C39.8039 42.7198 39.7831 42.7104 39.761 42.709H39.633C38.953 42.964 37.721 43.134 36.872 43.134C34.96 43.134 34.067 42.624 34.067 39.734C34.067 37.394 34.322 36.332 36.872 36.332C37.594 36.332 38.232 36.417 39.081 36.672C39.166 36.672 39.208 36.672 39.251 36.587L40.355 34.377V34.249C40.3536 34.2269 40.3442 34.2061 40.3285 34.1905C40.3129 34.1748 40.2921 34.1654 40.27 34.164C39.0992 33.8082 37.8836 33.622 36.66 33.611C32.708 33.611 30.923 35.481 30.923 39.691C30.923 43.941 32.708 45.855 36.659 45.855C37.636 45.855 39.633 45.642 40.568 45.26C40.653 45.217 40.695 45.132 40.653 45.047L39.846 42.794ZM9.17 33.994C9.12591 33.997 9.08441 34.0159 9.05317 34.0472C9.02192 34.0784 9.00303 34.1199 9 34.164V45.344C9 45.43 9.085 45.514 9.17 45.514H11.89C11.974 45.514 12.06 45.43 12.06 45.344V36.672H16.265C16.308 36.672 16.393 36.63 16.393 36.587C16.733 35.822 17.03 35.014 17.37 34.207V34.079C17.327 34.036 17.285 33.994 17.242 33.994H9.17Z" fill="#0F67B1"/>
<path fill-rule="evenodd" clip-rule="evenodd" d="M90.575 61.16V60.99C90.575 60.905 90.575 60.777 90.618 60.692C90.745 59.119 90.83 57.206 90.915 54.995V54.825L91 50.064C91 48.406 90.958 46.79 90.915 45.302V45.132L90.618 39.436C90.618 39.35 90.618 39.223 90.575 39.138V38.968C90.575 38.798 90.533 38.67 90.533 38.5V38.33C90.405 36.672 90.32 35.652 90.278 35.567C90.278 35.397 90.235 35.227 90.235 35.099V34.972C90.1988 34.685 90.142 34.4009 90.065 34.122C90.065 34.079 90.065 34.036 90.023 33.994C89.301 30.55 87.389 26.767 85.009 23.918C84.075 22.813 83.097 21.835 82.078 21.07C78.2394 18.2397 74.2539 15.6144 70.138 13.205C63.893 9.506 58.285 6.955 57.563 6.615C57.52 6.615 57.52 6.573 57.52 6.573C55.863 5.85 53.866 5.34 51.7 5.128C51.275 5.085 50.85 5.043 50.425 5.043C50.042 5.043 49.66 5 49.278 5H48.683C45.751 5.043 43.075 5.595 40.95 6.573C40.61 6.701 34.96 9.293 28.544 13.035L28.289 13.162C24.1894 15.6123 20.2055 18.2512 16.35 21.07C14.736 22.26 13.291 23.79 11.974 25.746C11.677 26.214 11.677 27.319 12.951 27.319H16.223C17.625 27.319 17.965 26.469 19.537 25.321C21.279 24.046 24.72 21.495 31.008 17.754C35.554 15.076 39.803 12.992 41.842 12.014C41.885 12.014 41.927 11.972 41.97 11.972C41.97 11.972 42.012 11.972 42.012 11.93C42.012 11.93 42.055 11.93 42.055 11.887C42.097 11.887 42.14 11.845 42.14 11.845C42.182 11.845 42.225 11.802 42.267 11.802C42.777 11.547 43.117 11.419 43.117 11.419C44.562 10.782 46.601 10.357 48.767 10.314H49.617C50.255 10.314 50.892 10.357 51.487 10.442C52.804 10.612 53.994 10.867 54.971 11.292C55.056 11.334 55.183 11.377 55.268 11.419C59.418 13.3498 63.4733 15.4779 67.42 17.796C71.3677 20.1254 75.1962 22.6512 78.891 25.364C79.698 25.959 80.506 26.809 81.271 27.744C83.182 30.21 84.754 33.569 85.009 36.162C85.009 36.205 85.137 37.225 85.264 38.968C85.264 39.095 85.264 39.18 85.307 39.308V39.563C85.307 39.733 85.349 39.861 85.349 40.031V40.201C85.349 40.286 85.349 40.413 85.392 40.498C85.392 40.711 85.434 40.923 85.434 41.136C85.434 41.264 85.434 41.391 85.477 41.519V41.604C85.477 41.774 85.477 41.901 85.519 42.071V42.411C85.806 47.481 85.806 52.561 85.519 57.631V57.971C85.519 58.141 85.519 58.269 85.477 58.439V58.524C85.477 58.651 85.477 58.779 85.434 58.906C85.434 59.119 85.392 59.332 85.392 59.544C85.392 59.672 85.392 59.757 85.349 59.842V60.012C85.349 60.182 85.307 60.309 85.307 60.479V60.735C85.307 60.862 85.307 60.99 85.264 61.075C85.137 62.818 85.009 63.88 85.009 63.88C84.754 66.474 83.182 69.832 81.27 72.298C80.506 73.276 79.698 74.084 78.891 74.678C78.849 74.678 77.744 75.529 75.917 76.804C69.441 81.2973 62.5892 85.2232 55.438 88.538L55.268 88.623C55.183 88.666 55.056 88.708 54.971 88.751C53.994 89.133 52.804 89.431 51.487 89.601C50.892 89.686 50.255 89.728 49.617 89.728H48.767C46.601 89.686 44.562 89.303 43.117 88.623C43.117 88.623 42.82 88.496 42.267 88.24C42.225 88.198 42.14 88.198 42.097 88.155C42.055 88.113 42.012 88.113 41.97 88.07C41.927 88.07 41.927 88.028 41.885 88.028C41.842 88.028 41.8 87.985 41.758 87.985C41.715 87.943 41.673 87.943 41.588 87.9H41.545C37.9389 86.1834 34.4089 84.3113 30.965 82.289C24.635 78.59 21.236 75.997 19.495 74.721C17.922 73.573 17.582 72.723 16.18 72.723H12.951C11.677 72.723 11.677 73.829 11.974 74.253C13.291 76.21 14.736 77.74 16.35 78.93C16.563 79.1 21.746 82.926 28.29 86.795C28.629 87.008 28.969 87.22 29.351 87.39C35.427 90.876 40.653 93.257 40.951 93.427C43.032 94.362 45.751 94.915 48.641 95H49.235C49.618 95 50 95 50.382 94.957C50.807 94.957 51.232 94.915 51.657 94.872C53.824 94.66 55.863 94.15 57.477 93.427C57.477 93.427 57.52 93.427 57.52 93.385C58.242 93.045 63.85 90.451 70.096 86.795C73.0893 85.0227 76.0226 83.151 78.891 81.183L82.035 78.93C83.055 78.165 84.032 77.187 84.967 76.082C87.347 73.233 89.258 69.45 89.98 66.006C89.98 65.964 89.98 65.921 90.023 65.879C90.065 65.581 90.15 65.283 90.193 65.029V64.9C90.235 64.73 90.235 64.56 90.235 64.432C90.235 64.347 90.363 63.327 90.49 61.669V61.499C90.575 61.456 90.575 61.287 90.575 61.16Z" fill="url(#paint0_linear_1_13)"/>
<path d="M42.65 50.829H34.322C34.237 50.829 34.195 50.872 34.152 50.957C33.94 54.74 33.218 58.779 32.198 62.095C32.198 62.137 32.198 62.18 32.24 62.222C32.283 62.265 32.325 62.265 32.368 62.265H35.215C35.299 62.265 35.342 62.222 35.342 62.18C36.149 59.63 36.787 56.313 37.042 53.507H39.761V62.137C39.761 62.222 39.846 62.307 39.931 62.307H42.65C42.735 62.307 42.82 62.222 42.82 62.137V50.957C42.82 50.914 42.735 50.829 42.65 50.829Z" fill="#EF3E58"/>
<defs>
<linearGradient id="paint0_linear_1_13" x1="3971.68" y1="4.19" x2="3971.68" y2="9020.3" gradientUnits="userSpaceOnUse">
<stop offset="0.4" stop-color="#1466AC"/>
<stop offset="0.66" stop-color="#EF4058"/>
</linearGradient>
</defs>
</svg>
