<svg xmlns:xlink="http://www.w3.org/1999/xlink" xmlns="http://www.w3.org/2000/svg" width="254" height="146" viewBox="0 0 254 146" fill="none"><path d="M133.051 80.4982C126.841 134.358 113.913 144.581 59.7875 138.404C5.66732 132.224 -4.60041 119.356 1.60201 65.4957C7.81199 11.6355 20.7429 1.41752 74.8656 7.59738C128.988 13.7722 139.261 26.6405 133.051 80.5007V80.4982Z" fill="url(#paint0_linear_5528_9129)"/><path d="M239.811 40.489C234.409 40.489 229.916 42.6383 225.652 49.0912L208.65 74.6123L210.186 54.6949C210.755 47.225 206.035 40.4915 197.62 40.4915C189.774 40.4915 184.941 45.7545 184.485 52.3753L181.812 88.7606C181.188 97.9264 185.905 103.019 193.64 103.019C201.376 103.019 205.808 97.7561 209.219 92.6634L225.652 67.9364L224.174 88.7606C223.55 97.3052 228.041 103.019 236.456 103.019C244.246 103.019 249.251 98.4349 249.762 91.5311L252.49 54.6924C253.001 47.5632 249.477 40.489 239.811 40.489ZM175.103 85.474C175.103 77.1549 168.735 71.7791 160.32 70.7044C168.166 69.0637 175.048 63.9134 175.048 55.5391C175.048 46.2581 167.826 40.9975 154.578 41.0526H127.739C115.345 41.0526 110.738 46.0326 109.772 59.6123L108.178 82.3603C107.098 97.6383 111.476 102.448 126.602 102.448H152.302C167.086 102.448 175.103 96.3933 175.103 85.4715V85.474ZM149.742 83.8332C149.742 89.0962 145.649 91.5862 138.825 91.5862L131.591 91.5286C131.591 91.5286 132.726 84.1188 133.456 76.7039H140.076C145.763 76.7039 149.742 79.0236 149.742 83.8332ZM150.027 58.9359C150.027 63.4625 146.332 66.1779 139.792 66.1779H134.35C134.35 66.1779 134.893 57.9239 134.538 51.9745H140.529C146.5 51.9745 150.024 54.5221 150.024 58.9334L150.027 58.9359Z" fill="#fff"/><path d="M89.5509 40.5872C84.0936 40.5872 79.7262 42.759 75.3613 49.1568L58.3827 74.6227L59.9585 54.8281C60.4443 47.3457 55.7145 40.5872 47.3447 40.5872C39.5816 40.5872 34.7309 45.7775 34.2451 52.4158L31.5769 88.8662C30.9702 97.9193 35.7001 103.107 43.219 103.107C50.7379 103.107 55.4678 97.6763 58.9868 92.7264L75.3588 67.9845L73.9039 88.8637C73.1764 97.3131 77.7854 103.105 86.1526 103.105C93.9157 103.105 99.0081 98.518 99.4939 91.6393L102.162 54.8281C102.769 47.5862 99.2522 40.5872 89.5484 40.5872H89.5509Z" fill="url(#paint1_linear_5528_9129)"/><path d="M59.932 54.8458L58.3562 74.6404L58.9603 92.7441C55.4413 97.694 50.7114 103.125 43.1925 103.125C35.6736 103.125 30.9437 97.937 31.5504 88.8839L34.2186 52.4335C34.7044 45.7952 39.5551 40.6048 47.3182 40.6048C55.688 40.6048 60.4178 47.3633 59.932 54.8458Z" fill="url(#paint2_linear_5528_9129)"/><path d="M59.9841 53.7961C59.9841 46.8923 55.4984 40.5822 47.2495 40.5822C39.0006 40.5822 34.2153 46.737 34.2153 53.3752C34.2153 60.497 39.5846 66.0481 47.1035 66.0481C54.6224 66.0481 59.9841 60.9153 59.9841 53.7961Z" fill="#fff"/><defs><linearGradient id="paint0_linear_5528_9129" x1="147.677" y1="220.531" x2="1.057" y2=".15" gradientUnits="userSpaceOnUse"><stop offset=".798" stop-color="#F30745"/><stop offset=".977" stop-color="#FFBCCE"/></linearGradient><linearGradient id="paint1_linear_5528_9129" x1="64.086" y1="71.538" x2="37.855" y2="68.192" gradientUnits="userSpaceOnUse"><stop offset=".15" stop-color="#fff"/><stop offset=".62" stop-color="#fff" stop-opacity=".6"/><stop offset="1" stop-color="#fff" stop-opacity="0"/></linearGradient><linearGradient id="paint2_linear_5528_9129" x1="39.889" y1="102.652" x2="46.94" y2="64.009" gradientUnits="userSpaceOnUse"><stop offset=".15" stop-color="#fff"/><stop offset=".62" stop-color="#fff" stop-opacity=".6"/><stop offset="1" stop-color="#fff" stop-opacity="0"/></linearGradient></defs></svg>