<svg width="100" height="100" viewBox="0 0 100 100" fill="none" xmlns="http://www.w3.org/2000/svg">
<rect width="100" height="100" rx="50" fill="white"/>
<path d="M50.9689 82.9598C44.0461 83.16 37.2195 81.3028 31.3523 77.623C25.4851 73.9432 20.8409 68.6062 18.0071 62.2868C15.1733 55.9675 14.2771 48.9497 15.4319 42.121C16.5867 35.2923 19.7406 28.9594 24.4948 23.9233C29.2489 18.8871 35.3898 15.3739 42.1407 13.828C48.8916 12.282 55.9493 12.7728 62.4213 15.2382C68.8933 17.7035 74.4888 22.0328 78.5002 27.6785C82.5116 33.3241 84.7587 40.0325 84.9573 46.9554C85.0908 51.5514 84.3174 56.1288 82.6814 60.4259C81.0453 64.723 78.5787 68.6556 75.4224 71.9992C72.266 75.3427 68.4819 78.0316 64.2861 79.9123C60.0903 81.793 55.565 82.8285 50.9689 82.9598ZM96.9794 46.609C96.7044 37.3211 93.6825 28.3232 88.2956 20.7521C82.9086 13.181 75.3984 7.37656 66.7138 4.07223C58.0292 0.767895 48.56 0.111944 39.5028 2.18726C30.4455 4.26258 22.2067 8.97603 15.8273 15.732C9.44783 22.488 5.21414 30.9834 3.66113 40.1447C2.10812 49.3059 3.30549 58.722 7.10195 67.203C10.8984 75.684 17.1236 82.8494 24.9908 87.7937C32.8581 92.7381 42.0144 95.2395 51.3028 94.9819C57.48 94.8106 63.5628 93.4229 69.203 90.8981C74.8432 88.3733 79.9302 84.761 84.1728 80.268C88.4153 75.7749 91.7303 70.4894 93.9278 64.7138C96.1253 58.9381 97.1623 52.7859 96.9794 46.609Z" fill="#0066B3"/>
<path d="M49.9176 82.1311C40.99 82.0527 32.4476 78.4837 26.1178 72.1875C19.7879 65.8914 16.1734 57.3681 16.0473 48.441C15.9213 39.514 19.2937 30.892 25.4433 24.4197C31.5928 17.9473 40.0311 14.1385 48.9529 13.808H49.9547C58.9395 13.7957 67.5674 17.3235 73.9696 23.6273C80.3717 29.9311 84.0328 38.5033 84.1596 47.4871C84.2865 56.471 80.869 65.1431 74.6474 71.6252C68.4258 78.1073 59.901 81.8773 50.9195 82.1188H49.9176M49.9176 82.9598H50.9442C60.1524 82.7155 68.8934 78.8526 75.2731 72.2081C81.6528 65.5636 85.1573 56.6728 85.0271 47.4624C84.897 38.2519 81.1426 29.4637 74.5777 23.0021C68.0128 16.5406 59.1661 12.9262 49.9547 12.9422H48.9282C39.6416 13.0734 30.7875 16.8883 24.3137 23.5477C17.8399 30.2071 14.2767 39.1654 14.4079 48.4519C14.5391 57.7385 18.354 66.5926 25.0134 73.0664C31.6728 79.5402 40.6311 83.1034 49.9176 82.9722" fill="white"/>
<path d="M49.9794 14.649H49.0023C40.1619 14.7704 31.7318 18.3987 25.5665 24.7356C19.4012 31.0726 16.0057 39.5991 16.1271 48.4396C16.2484 57.28 19.8767 65.7101 26.2136 71.8754C32.5506 78.0407 41.0772 81.4362 49.9176 81.3148H50.8947C59.5913 80.9892 67.8153 77.2742 73.8084 70.964C79.8016 64.6538 83.0881 56.2493 82.9653 47.5475C82.8425 38.8457 79.3202 30.5373 73.1514 24.3987C66.9826 18.2601 58.657 14.7786 49.9547 14.6985L49.9794 14.649ZM49.9176 83.7885C42.9298 83.7589 36.1028 81.6888 30.2753 77.8325C24.4478 73.9762 19.8737 68.5016 17.1148 62.0814C14.356 55.6612 13.5326 48.5749 14.7458 41.6931C15.959 34.8113 19.1559 28.4338 23.9439 23.344C27.1599 19.9144 31.0237 17.156 35.3121 15.2284C39.6004 13.3008 44.2282 12.2421 48.9281 12.1135H49.9794C59.4923 11.9807 68.6684 15.6322 75.4889 22.2649C82.3095 28.8976 86.2159 37.9681 86.3488 47.481C86.4816 56.9939 82.83 66.1699 76.1973 72.9905C69.5647 79.8111 60.4942 83.7175 50.9813 83.8503H49.9176" fill="#0066B3"/>
<path d="M83.1762 74.6606L81.6797 72.3724L80.6036 73.733L83.1762 74.6606ZM77.9197 74.0669L77.6599 73.9556C77.6599 73.9556 77.5733 73.8814 77.5733 73.8319C77.5505 73.7722 77.5505 73.7061 77.5733 73.6464C77.641 73.5466 77.7154 73.4516 77.796 73.3619C77.8674 73.2577 77.9459 73.1585 78.031 73.0651C78.0776 73.0121 78.1318 72.9662 78.1918 72.929C78.2074 72.9222 78.2242 72.9187 78.2412 72.9187C78.2583 72.9187 78.2751 72.9222 78.2907 72.929H78.3897L79.6265 73.3743L81.0612 71.5685L80.3686 70.5295C80.3645 70.4925 80.3645 70.4552 80.3686 70.4182C80.3562 70.3779 80.3562 70.3348 80.3686 70.2945L80.4676 70.1214L80.6654 69.8616L80.8881 69.6019C80.9077 69.5775 80.9321 69.5572 80.9597 69.5424C80.9873 69.5275 81.0176 69.5183 81.0489 69.5153C81.0489 69.5153 81.1354 69.5153 81.1849 69.5772C81.2462 69.6455 81.3001 69.7202 81.3457 69.7998L84.4254 74.6606C84.4298 74.7017 84.4298 74.7432 84.4254 74.7843C84.4311 74.8336 84.4311 74.8834 84.4254 74.9327L84.3018 75.1306C84.2298 75.2344 84.1513 75.3335 84.0668 75.4274L83.7947 75.7737L83.5968 75.9593C83.5524 75.9727 83.5051 75.9727 83.4607 75.9593C83.4077 75.9703 83.3529 75.9703 83.2999 75.9593L77.9197 74.0669ZM83.6091 68.563C83.7175 68.6314 83.8403 68.6737 83.9678 68.6866C84.0778 68.7112 84.1918 68.7112 84.3018 68.6866C84.4197 68.6414 84.5256 68.5695 84.611 68.4764C84.7443 68.3535 84.8534 68.2067 84.9325 68.0435L85.3283 67.3509L83.7823 66.4727L83.3865 67.1777C83.301 67.3254 83.2345 67.4833 83.1886 67.6477C83.1712 67.7666 83.1712 67.8875 83.1886 68.0064C83.2135 68.1211 83.2596 68.2302 83.3247 68.328C83.4031 68.4323 83.5047 68.517 83.6215 68.5753M83.0773 69.7256C82.8482 69.5969 82.6466 69.4246 82.4836 69.2185C82.326 69.0285 82.2158 68.8039 82.162 68.563C82.1008 68.2901 82.1008 68.0071 82.162 67.7343C82.2421 67.3569 82.3887 66.9967 82.5949 66.6706L83.3989 65.2359C83.4181 65.1886 83.4467 65.1456 83.4828 65.1095C83.5189 65.0734 83.5618 65.0449 83.6091 65.0256C83.6649 65.0149 83.7224 65.016 83.7778 65.0287C83.8331 65.0415 83.8852 65.0657 83.9307 65.0998L88.5689 67.7095C88.62 67.7293 88.6657 67.7609 88.7023 67.8017C88.7388 67.8426 88.7652 67.8915 88.7791 67.9445C88.8144 68.0361 88.8144 68.1375 88.7791 68.229L87.0228 71.2593L86.961 71.3211H86.862H86.7012L86.5033 71.2222L86.3054 71.0985C86.2623 71.0679 86.2247 71.0303 86.1941 70.9872C86.1847 70.9591 86.1847 70.9287 86.1941 70.9006C86.1876 70.8871 86.1842 70.8723 86.1842 70.8573C86.1842 70.8423 86.1876 70.8275 86.1941 70.814L87.431 68.563L86.0952 67.8085L85.6004 68.699C85.4472 68.9872 85.2558 69.2535 85.0315 69.4906C84.8515 69.6595 84.6418 69.7937 84.4131 69.8864C84.2011 69.9702 83.9715 70 83.7452 69.973C83.4969 69.9504 83.2564 69.8744 83.0402 69.7503M84.4254 63.8135C84.4014 63.822 84.3752 63.822 84.3512 63.8135C84.3512 63.8135 84.3512 63.7516 84.3512 63.7022C84.3459 63.6363 84.3459 63.5701 84.3512 63.5043C84.3765 63.3989 84.4096 63.2955 84.4502 63.1951C84.468 63.0477 84.5011 62.9026 84.5491 62.7622C84.5719 62.6954 84.6053 62.6328 84.6481 62.5766C84.6723 62.542 84.707 62.516 84.747 62.5024H84.8707H86.3178C86.4945 62.5237 86.673 62.5237 86.8497 62.5024C86.9837 62.4838 87.1134 62.442 87.2331 62.3788C87.3361 62.3208 87.4249 62.2405 87.4928 62.1438C87.564 62.0373 87.6183 61.9205 87.6536 61.7974L87.7402 61.5624L85.4149 60.7956C85.4149 60.7956 85.4149 60.7956 85.3407 60.7956C85.3263 60.7599 85.3263 60.72 85.3407 60.6843C85.337 60.6225 85.337 60.5605 85.3407 60.4988L85.4273 60.2143L85.5262 59.9422L85.6252 59.769L85.7118 59.6948H85.786L88.0989 60.4616L88.1854 60.239C88.208 60.1039 88.208 59.966 88.1854 59.8309C88.1917 59.7109 88.1661 59.5914 88.1112 59.4845C88.0573 59.3646 87.9818 59.2557 87.8886 59.163C87.7682 59.0473 87.6401 58.9398 87.5052 58.8414L86.2683 57.988L86.3425 57.8148C86.3344 57.7698 86.3344 57.7237 86.3425 57.6788C86.3387 57.6128 86.3387 57.5468 86.3425 57.4809C86.3647 57.376 86.3936 57.2727 86.4291 57.1716C86.4645 57.0704 86.5058 56.9712 86.5528 56.8748C86.5768 56.8108 86.6058 56.7488 86.6394 56.6893L86.726 56.6151C86.7578 56.6027 86.7931 56.6027 86.8249 56.6151C86.8249 56.6151 86.8249 56.6151 86.8991 56.6151H86.9857L87.1094 56.714L88.136 57.5056C88.3056 57.6259 88.463 57.7627 88.606 57.9138C88.7185 58.0182 88.8144 58.1391 88.8904 58.2724C88.9663 58.3762 89.0209 58.4939 89.0512 58.6188C89.0581 58.7465 89.0581 58.8745 89.0512 59.0022C89.1164 58.9081 89.1957 58.8247 89.2862 58.7548C89.377 58.6775 89.4821 58.6187 89.5954 58.5816C89.7327 58.5373 89.8733 58.5042 90.016 58.4827C90.2095 58.4684 90.4038 58.4684 90.5973 58.4827H92.0073H92.1433C92.1673 58.4742 92.1935 58.4742 92.2175 58.4827C92.2175 58.4827 92.2175 58.5445 92.2175 58.594C92.2222 58.6558 92.2222 58.7178 92.2175 58.7795C92.1968 58.8807 92.1679 58.98 92.131 59.0764C92.1022 59.1783 92.0649 59.2775 92.0196 59.3732C92.0196 59.4474 92.0196 59.5217 91.9207 59.5464C91.8978 59.5851 91.8631 59.6154 91.8217 59.633H91.6981H90.3499C90.1894 59.6193 90.028 59.6193 89.8675 59.633C89.7465 59.6417 89.6286 59.6754 89.5212 59.7319C89.4251 59.7894 89.3411 59.865 89.2739 59.9545C89.1983 60.0602 89.1399 60.177 89.1007 60.3009L89.0265 60.5359L91.2033 61.2532C91.2275 61.2456 91.2534 61.2456 91.2775 61.2532C91.2775 61.2532 91.2775 61.2532 91.2775 61.3645C91.2875 61.426 91.2875 61.4886 91.2775 61.5501C91.2602 61.648 91.2312 61.7435 91.191 61.8345C91.164 61.9273 91.131 62.0182 91.092 62.1067C91.0673 62.1687 91.034 62.227 90.9931 62.2798C90.9742 62.3143 90.9434 62.3407 90.9065 62.354H90.8199L88.7544 61.8964L88.6802 62.119C88.6328 62.2414 88.6077 62.3712 88.606 62.5024C88.6054 62.6139 88.6308 62.724 88.6802 62.824C88.738 62.938 88.8131 63.0423 88.9028 63.1332C89.0092 63.247 89.1298 63.3468 89.2615 63.4301L90.3623 64.2093C90.3961 64.2276 90.4256 64.2529 90.4489 64.2835C90.4613 64.3238 90.4613 64.3669 90.4489 64.4072C90.4589 64.4728 90.4589 64.5395 90.4489 64.6051C90.4327 64.7113 90.4036 64.8151 90.3623 64.9143C90.3337 65.0122 90.2965 65.1074 90.251 65.1988C90.2271 65.2589 90.1982 65.3168 90.1644 65.3719C90.1421 65.4034 90.1123 65.4289 90.0778 65.4461H89.9912H89.8428L89.6573 65.2359L88.7544 64.5432C88.6032 64.4323 88.4586 64.3125 88.3215 64.1845C88.2199 64.0826 88.1287 63.9707 88.0494 63.8506C87.9891 63.7504 87.9433 63.6421 87.9133 63.529C87.8946 63.4102 87.8946 63.2892 87.9133 63.1703C87.8239 63.2746 87.7245 63.3699 87.6165 63.4548C87.5094 63.5311 87.393 63.5935 87.2702 63.6403C87.1262 63.6934 86.9769 63.7307 86.8249 63.7516C86.619 63.7659 86.4124 63.7659 86.2065 63.7516H84.4502M88.6307 54.364C88.3419 54.2118 88.0649 54.0382 87.802 53.8445C87.6143 53.7122 87.4546 53.5441 87.332 53.3498C87.213 53.196 87.1401 53.0116 87.1218 52.818C87.0845 52.6094 87.0845 52.3958 87.1218 52.1872V51.9398C87.1218 51.8656 87.1218 51.7914 87.2083 51.7172C87.2296 51.656 87.2587 51.5978 87.2949 51.544L87.3815 51.4327H87.4557H87.567H87.7402H87.9875C88.1197 51.4366 88.2499 51.466 88.371 51.5193C88.4452 51.5193 88.4823 51.6059 88.4699 51.6553C88.4803 51.6875 88.4803 51.7221 88.4699 51.7543C88.4309 51.7856 88.3975 51.8232 88.371 51.8656C88.337 51.9163 88.308 51.9701 88.2844 52.0264C88.2758 52.1004 88.2758 52.1751 88.2844 52.249C88.2721 52.3102 88.2721 52.3733 88.2844 52.4345C88.2739 52.4918 88.2739 52.5505 88.2844 52.6077C88.3266 52.6675 88.3765 52.7216 88.4328 52.7685C88.5123 52.8432 88.5994 52.9096 88.6925 52.9664L93.0339 51.5193C93.1157 51.505 93.1994 51.505 93.2812 51.5193C93.3025 51.5093 93.3257 51.5042 93.3493 51.5042C93.3728 51.5042 93.396 51.5093 93.4173 51.5193C93.4352 51.584 93.4352 51.6524 93.4173 51.7172C93.4265 51.8366 93.4265 51.9565 93.4173 52.0759C93.4173 52.2243 93.4173 52.3356 93.4173 52.4222C93.4098 52.4972 93.3843 52.5693 93.3431 52.6324C93.3238 52.6798 93.2889 52.7191 93.2441 52.7438L93.0833 52.8056L91.1291 53.4117L90.5107 53.6095L89.8799 53.7703L90.4736 54.0548L91.0673 54.364L92.836 55.304C92.8744 55.326 92.908 55.3555 92.9349 55.3906C92.9392 55.4276 92.9392 55.4649 92.9349 55.5019C92.9409 55.5719 92.9409 55.6422 92.9349 55.7122C92.9349 55.7988 92.9349 55.9224 92.9349 56.0585C92.9416 56.1697 92.9416 56.2812 92.9349 56.3924C92.9216 56.4583 92.8964 56.5211 92.8607 56.578C92.8438 56.5877 92.8246 56.5929 92.805 56.5929C92.7855 56.5929 92.7663 56.5877 92.7494 56.578C92.656 56.6015 92.5583 56.6015 92.4649 56.578L88.6307 54.364ZM87.6165 49.4167H87.5299C87.5186 49.3846 87.5186 49.3497 87.5299 49.3177C87.5204 49.2562 87.5204 49.1937 87.5299 49.1322C87.5217 49.0334 87.5217 48.9341 87.5299 48.8353V48.5261C87.5299 48.4519 87.5299 48.3901 87.5299 48.3406C87.5253 48.3036 87.5253 48.2662 87.5299 48.2293H87.6165L92.5639 48.0809V46.7698C91.8341 46.6956 91.2033 46.6338 90.6715 46.5472C90.2005 46.4968 89.7335 46.4141 89.2739 46.2998C88.947 46.2284 88.628 46.1248 88.3215 45.9906C88.1031 45.8871 87.9026 45.7493 87.7278 45.5824C87.5795 45.4335 87.4692 45.2511 87.4062 45.0506C87.3507 44.8277 87.3175 44.5998 87.3073 44.3703C87.3012 44.3293 87.3012 44.2877 87.3073 44.2467C87.3249 44.2124 87.3504 44.1828 87.3815 44.1601H87.5299H87.7649C87.8759 44.1475 87.9879 44.1475 88.0989 44.1601H88.2844C88.2793 44.178 88.2709 44.1948 88.2596 44.2095C88.267 44.2379 88.267 44.2677 88.2596 44.2961C88.2651 44.391 88.2904 44.4837 88.3339 44.5682C88.3867 44.6749 88.468 44.7648 88.5689 44.828C88.7293 44.9205 88.8993 44.9951 89.076 45.0506C89.352 45.1369 89.6328 45.2071 89.917 45.2609L91.1539 45.434C91.6486 45.4959 92.2423 45.5453 92.9349 45.6072C93.053 45.61 93.1683 45.6442 93.2689 45.7061C93.3349 45.7723 93.3744 45.8602 93.3802 45.9535L93.4668 48.959C93.4732 49.0061 93.4688 49.054 93.4538 49.099C93.4388 49.144 93.4136 49.185 93.3802 49.2188C93.3406 49.2562 93.294 49.2853 93.243 49.3044C93.192 49.3235 93.1377 49.3323 93.0833 49.3301L87.6165 49.4167ZM88.0618 43.1459H87.8639H87.7278H87.6165H87.5052C87.4411 43.0948 87.383 43.0368 87.332 42.9727C87.2578 42.8861 87.1836 42.7748 87.097 42.6511C87.0104 42.5274 86.9486 42.3667 86.8744 42.1935C86.8103 42.0028 86.7566 41.8087 86.7136 41.6122C86.6399 41.2323 86.6399 40.8418 86.7136 40.4619C86.7715 40.1164 86.9115 39.7898 87.1218 39.5095C87.3459 39.2115 87.6331 38.9665 87.9628 38.7922C88.3497 38.5809 88.7669 38.4308 89.1997 38.3469C89.6637 38.2541 90.1393 38.2332 90.6097 38.2851C90.9996 38.3334 91.3749 38.4641 91.7104 38.6685C92.0277 38.8582 92.2949 39.1211 92.4896 39.4353C92.7079 39.7596 92.8554 40.1263 92.9225 40.5114C92.9402 40.6758 92.9402 40.8417 92.9225 41.0061C92.9225 41.1669 92.9225 41.3153 92.9225 41.4638C92.9069 41.5942 92.8779 41.7227 92.836 41.8472C92.8108 41.9345 92.7734 42.0178 92.7246 42.0945L92.6381 42.2059C92.6052 42.2104 92.5719 42.2104 92.5391 42.2059C92.49 42.2147 92.4398 42.2147 92.3907 42.2059H92.1804H91.9331C91.8797 42.2121 91.8257 42.2121 91.7723 42.2059C91.7405 42.2183 91.7051 42.2183 91.6733 42.2059C91.6668 42.1946 91.6634 42.1818 91.6634 42.1688C91.6634 42.1557 91.6668 42.1429 91.6733 42.1317C91.6493 42.0722 91.6493 42.0056 91.6733 41.9461L91.797 41.6245C91.8601 41.5417 91.918 41.455 91.9702 41.3648C92 41.1763 92 40.9843 91.9702 40.7959C91.9309 40.5707 91.8375 40.3585 91.6981 40.1774C91.5603 40.0097 91.3871 39.8746 91.191 39.7817C90.9618 39.6884 90.72 39.63 90.4736 39.6085C90.1749 39.5983 89.876 39.6232 89.5831 39.6827C89.2737 39.7326 88.9735 39.8285 88.6925 39.9672C88.4738 40.0745 88.2767 40.2212 88.1112 40.4001C87.9793 40.5624 87.8862 40.7528 87.8391 40.9567C87.7897 41.1765 87.7897 41.4047 87.8391 41.6245C87.8689 41.8193 87.9316 42.0075 88.0246 42.1811C88.097 42.3113 88.1797 42.4354 88.272 42.5522C88.3367 42.639 88.4114 42.7179 88.4947 42.7872C88.5426 42.8324 88.5805 42.8872 88.606 42.948C88.606 42.948 88.606 43.0098 88.606 43.0222C88.606 43.0345 88.606 43.0222 88.606 43.084H88.4452H88.1854M87.9504 28.5759L87.5175 28.1306C87.4305 27.9506 87.318 27.784 87.1836 27.6359C87.0938 27.5512 86.9889 27.4841 86.8744 27.438C86.7644 27.4138 86.6504 27.4138 86.5404 27.438C86.4195 27.4617 86.3028 27.5034 86.1941 27.5617C86.0897 27.6226 85.994 27.6975 85.9096 27.7843C85.843 27.889 85.8007 28.0074 85.786 28.1306C85.7606 28.253 85.7606 28.3793 85.786 28.5017C85.8302 28.6901 85.9054 28.8698 86.0086 29.0335L86.3178 29.6148L87.9504 28.5759ZM84.1533 32.0514C84.1215 32.0638 84.0862 32.0638 84.0544 32.0514C84.0544 32.0514 84.0544 32.0514 83.9554 31.9896L83.8441 31.8411C83.7839 31.7588 83.7302 31.672 83.6833 31.5814L83.5597 31.3217C83.5488 31.2603 83.5488 31.1975 83.5597 31.1361C83.5473 31.0958 83.5473 31.0527 83.5597 31.0124C83.553 30.9924 83.553 30.9707 83.5597 30.9506L85.5633 29.8622L85.3531 29.454C85.2875 29.3242 85.1996 29.207 85.0933 29.1077C85.0147 29.032 84.916 28.9804 84.8089 28.9593C84.6902 28.9387 84.5689 28.9387 84.4502 28.9593H84.0049L82.496 29.3674C82.46 29.3807 82.4206 29.3807 82.3847 29.3674C82.3847 29.3674 82.3105 29.3674 82.2733 29.3056C82.222 29.2573 82.1764 29.2034 82.1373 29.1448C82.1373 29.0706 82.0383 28.9717 81.9765 28.8603C81.9215 28.76 81.872 28.6568 81.8281 28.5511C81.8154 28.4899 81.8154 28.4268 81.8281 28.3656C81.8204 28.3289 81.8204 28.291 81.8281 28.2543H81.9394H82.1497L83.3865 28.0811H83.8318C83.9553 28.0738 84.0792 28.0738 84.2028 28.0811C84.3146 28.1032 84.4228 28.1407 84.5244 28.1924C84.626 28.2309 84.7186 28.2898 84.7965 28.3656C84.7783 28.1805 84.7783 27.9941 84.7965 27.809C84.8031 27.6439 84.8365 27.481 84.8954 27.3267C84.9627 27.1763 85.0547 27.0384 85.1676 26.9185C85.2961 26.7862 85.4468 26.6774 85.6128 26.5969C85.8364 26.4673 86.0853 26.3871 86.3425 26.3619C86.582 26.3392 86.8236 26.373 87.0475 26.4609C87.292 26.5669 87.5144 26.718 87.7031 26.9061C87.9733 27.1993 88.2021 27.5281 88.3833 27.8832L89.0883 29.2067C89.1241 29.2938 89.1241 29.3916 89.0883 29.4788C89.0719 29.5291 89.0445 29.5752 89.0082 29.6136C88.9718 29.6521 88.9274 29.6821 88.8781 29.7014L84.1533 32.0514ZM83.4978 22.033L80.8386 23.0596L81.8528 24.4201L83.4978 22.033ZM81.6797 26.9803C81.6341 27.0596 81.5756 27.1307 81.5065 27.1906C81.4905 27.2121 81.4701 27.2298 81.4466 27.2426C81.4231 27.2554 81.3971 27.263 81.3704 27.2648C81.3081 27.2422 81.2527 27.2039 81.2097 27.1535L80.8386 27.0174L80.616 26.7206C80.5737 26.6642 80.5404 26.6016 80.517 26.5351C80.5083 26.5178 80.5038 26.4988 80.5038 26.4794C80.5038 26.4601 80.5083 26.441 80.517 26.4238C80.5102 26.4082 80.5067 26.3913 80.5067 26.3743C80.5067 26.3573 80.5102 26.3404 80.517 26.3248L81.222 25.2488L79.8739 23.4306L78.637 23.8635H78.5133H78.402C78.3461 23.8307 78.296 23.7889 78.2536 23.7398L78.0433 23.4801L77.8949 23.1832C77.8751 23.123 77.8751 23.058 77.8949 22.9977C77.9121 22.9491 77.9477 22.9092 77.9939 22.8864L78.2536 22.7751L83.6833 20.9322H83.8318C83.8765 20.9221 83.923 20.9221 83.9678 20.9322C84.0275 20.9793 84.0815 21.0333 84.1286 21.093C84.2028 21.1672 84.277 21.2661 84.376 21.3898L84.6481 21.7485C84.6982 21.8174 84.7397 21.8922 84.7718 21.9711C84.7888 22.0234 84.7888 22.0797 84.7718 22.1319C84.7541 22.1808 84.7291 22.2267 84.6976 22.268L81.6797 26.9803ZM79.206 17.9761C79.2842 17.8905 79.3508 17.7948 79.4039 17.6917C79.428 17.5942 79.428 17.4923 79.4039 17.3948C79.389 17.2889 79.351 17.1876 79.2926 17.098C79.2102 16.9656 79.1104 16.8449 78.9957 16.7393L78.3649 16.4672L77.2889 17.6175L77.796 18.0998C77.9 18.2029 78.0214 18.2866 78.1547 18.3472C78.2605 18.3711 78.3704 18.3711 78.4762 18.3472C78.5757 18.3462 78.6734 18.3207 78.7607 18.273C78.856 18.2249 78.9403 18.1575 79.0081 18.0751M77.462 20.2025C77.5449 20.1042 77.6155 19.9962 77.6723 19.8809C77.696 19.7666 77.696 19.6488 77.6723 19.5346C77.6549 19.4023 77.6084 19.2756 77.5362 19.1635C77.4386 19.0024 77.3129 18.86 77.1652 18.743L76.6952 18.2359L75.4583 19.4727L76.1139 20.0788C76.2168 20.1862 76.3383 20.2742 76.4726 20.3385C76.576 20.3938 76.6896 20.4274 76.8065 20.4374C76.9166 20.4608 77.0304 20.4608 77.1404 20.4374C77.253 20.3888 77.3541 20.3172 77.4373 20.2272M78.402 21.0806C78.2679 21.2254 78.1138 21.3503 77.9444 21.4517C77.7877 21.5384 77.6153 21.5931 77.4373 21.6124C77.2655 21.6432 77.0896 21.6432 76.9178 21.6124C76.7393 21.5844 76.5648 21.5345 76.3983 21.464C76.2237 21.3888 76.0543 21.302 75.8912 21.2043C75.711 21.0731 75.5376 20.9328 75.3718 20.7838L74.1968 19.6706C74.1585 19.6407 74.1268 19.6034 74.1034 19.5609C74.08 19.5184 74.0655 19.4715 74.0607 19.4232C74.0586 19.3678 74.0686 19.3125 74.0899 19.2612C74.1113 19.21 74.1435 19.164 74.1844 19.1264L77.8207 15.2303C77.8546 15.1875 77.8979 15.153 77.9472 15.1294C77.9965 15.1058 78.0505 15.0938 78.1052 15.0943C78.2031 15.0957 78.2964 15.1357 78.3649 15.2056L79.4781 16.2446C79.7205 16.4581 79.9327 16.7036 80.1089 16.9743C80.253 17.1694 80.3541 17.3928 80.4057 17.6298C80.4551 17.8372 80.4551 18.0532 80.4057 18.2606C80.3344 18.4868 80.2067 18.6911 80.0347 18.8543C79.9397 18.9585 79.8316 19.05 79.7131 19.1264C79.5999 19.1989 79.474 19.2492 79.342 19.2748C79.2149 19.2933 79.0857 19.2933 78.9586 19.2748C78.8229 19.2595 78.6898 19.2262 78.5628 19.1759C78.6604 19.3133 78.7394 19.463 78.7978 19.6211C78.8466 19.7773 78.8716 19.9399 78.872 20.1035C78.8587 20.2729 78.8212 20.4395 78.7607 20.5982C78.6829 20.7768 78.574 20.9401 78.4391 21.0806M73.4176 15.1561C73.5774 14.9096 73.7141 14.6487 73.8257 14.3769C73.929 14.1561 73.9839 13.9157 73.9865 13.6719C73.9902 13.4511 73.9347 13.2333 73.8257 13.0411C73.6857 12.8184 73.4949 12.6319 73.2691 12.4969C73.0706 12.3501 72.8371 12.258 72.5918 12.2298C72.3465 12.2016 72.0982 12.2382 71.8715 12.3361C71.6505 12.4405 71.4496 12.5829 71.2778 12.7567C71.0825 12.9522 70.9084 13.1678 70.7583 13.3998C70.5921 13.649 70.4512 13.9142 70.3378 14.1914C70.2345 14.4122 70.1797 14.6526 70.177 14.8964C70.1688 15.1178 70.2246 15.3368 70.3378 15.5272C70.4813 15.7472 70.6713 15.9329 70.8944 16.0714C71.1109 16.2219 71.3619 16.3155 71.6241 16.3435C71.8523 16.357 72.0806 16.319 72.292 16.2322C72.5186 16.1312 72.7242 15.9886 72.8981 15.8117C73.0905 15.6092 73.2644 15.3898 73.4176 15.1561ZM74.5431 15.8117C74.2942 16.2 73.99 16.55 73.6402 16.8506C73.3391 17.1007 72.9896 17.286 72.6136 17.3948C72.2434 17.4813 71.8583 17.4813 71.4881 17.3948C71.0461 17.3099 70.6256 17.1375 70.2512 16.8877C69.8951 16.6592 69.5778 16.3753 69.3112 16.0467C69.0928 15.7638 68.9445 15.4332 68.8783 15.0819C68.826 14.7082 68.8598 14.3274 68.9773 13.9688C69.1192 13.5274 69.3278 13.1103 69.5957 12.7319C69.8329 12.3458 70.134 12.0028 70.4862 11.7177C70.7805 11.4672 71.127 11.2855 71.5005 11.1859C71.8699 11.0932 72.2565 11.0932 72.626 11.1859C73.0687 11.2681 73.4898 11.4408 73.8628 11.693C74.2175 11.9137 74.5313 12.194 74.7905 12.5217C75.0136 12.8017 75.1625 13.1335 75.2233 13.4864C75.2818 13.8542 75.2564 14.2305 75.1491 14.5872C75.0101 15.0275 74.8059 15.4444 74.5431 15.824M69.707 9.91193C69.6778 9.98591 69.6405 10.0564 69.5957 10.1222C69.5724 10.1703 69.5386 10.2125 69.4968 10.2459C69.4683 10.2527 69.4386 10.2527 69.4102 10.2459C69.3823 10.2563 69.3515 10.2563 69.3236 10.2459L67.4807 9.40482L65.4152 13.8822C65.4228 13.9063 65.4228 13.9322 65.4152 13.9564H65.3039H65.1183L64.8339 13.8327L64.5741 13.6967C64.513 13.6719 64.458 13.6339 64.4134 13.5853C64.381 13.5588 64.3555 13.5249 64.3391 13.4864C64.3391 13.4864 64.3391 13.4864 64.3391 13.3998L66.6397 8.34114C66.6782 8.24245 66.7536 8.16262 66.8499 8.11851C66.9412 8.08203 67.0431 8.08203 67.1344 8.11851L69.7812 9.35535C69.7812 9.35535 69.8555 9.42956 69.8555 9.51614C69.8424 9.65138 69.8002 9.78219 69.7318 9.89956M62.422 9.57798C62.5081 9.29636 62.562 9.00592 62.5828 8.71219C62.6077 8.47131 62.5867 8.22789 62.521 7.99482C62.4557 7.78598 62.3362 7.59819 62.1747 7.45061C61.9772 7.28494 61.7445 7.16649 61.4944 7.1043C61.2356 7.03138 60.9616 7.03138 60.7028 7.1043C60.4815 7.15426 60.2769 7.2608 60.1091 7.41351C59.9258 7.57301 59.7746 7.76614 59.6639 7.98245C59.5427 8.22891 59.4434 8.4855 59.367 8.7493C59.2875 9.02051 59.2296 9.29761 59.1939 9.57798C59.1481 9.81492 59.1481 10.0584 59.1939 10.2953C59.2572 10.5086 59.3768 10.7009 59.5402 10.8519C59.742 11.0182 59.9788 11.1366 60.2328 11.1982C60.4884 11.2642 60.7565 11.2642 61.012 11.1982C61.2353 11.1435 61.4427 11.0376 61.6181 10.889C61.799 10.7178 61.9496 10.517 62.0633 10.2953C62.2043 10.0675 62.3244 9.82743 62.422 9.57798ZM63.6589 9.87482C63.5365 10.3127 63.3489 10.7297 63.1023 11.1117C62.9058 11.4834 62.6265 11.805 62.286 12.0517C61.962 12.2477 61.5989 12.3701 61.2223 12.4103C60.8051 12.4426 60.3856 12.3964 59.9855 12.2743C59.5758 12.1663 59.1871 11.9907 58.8352 11.7548C58.5379 11.5539 58.2955 11.2818 58.1302 10.9632C57.9677 10.6278 57.8832 10.2599 57.8828 9.88719C57.8878 9.41382 57.9586 8.94344 58.0931 8.48956C58.2145 8.05339 58.3977 7.63687 58.6373 7.25272C58.8508 6.92768 59.1286 6.64986 59.4536 6.4364C59.776 6.23691 60.1399 6.11419 60.5173 6.07772C60.9345 6.04049 61.355 6.08674 61.7541 6.21377C62.1584 6.32006 62.5427 6.49133 62.892 6.72088C63.1859 6.9222 63.4241 7.19448 63.5847 7.51245C63.7496 7.84316 63.8384 8.20663 63.8444 8.57614C63.8519 9.04544 63.7851 9.51296 63.6465 9.9614M55.7555 11.0127C55.7623 11.037 55.7623 11.0627 55.7555 11.0869C55.7189 11.0958 55.6807 11.0958 55.6441 11.0869H55.4586H55.1494H54.8526H54.667C54.6306 11.0727 54.6001 11.0465 54.5805 11.0127C54.5714 11.0001 54.5665 10.985 54.5665 10.9694C54.5665 10.9539 54.5714 10.9388 54.5805 10.9261L55.0505 5.97877L53.7394 5.85509C53.5786 6.57246 53.4302 7.17851 53.2941 7.71035C53.1581 8.24219 53.0097 8.68745 52.8613 9.07088C52.7529 9.38565 52.6119 9.68825 52.4407 9.97377C52.3161 10.1808 52.1522 10.3614 51.9584 10.5056C51.7928 10.6351 51.597 10.7202 51.3894 10.753C51.1634 10.7789 50.9352 10.7789 50.7091 10.753H50.5855L50.5112 10.6788C50.5033 10.6255 50.5033 10.5713 50.5112 10.518C50.5049 10.4398 50.5049 10.3612 50.5112 10.283C50.5112 10.1469 50.5112 10.0356 50.5112 9.9614C50.4937 9.9008 50.4937 9.83648 50.5112 9.77588C50.5091 9.73254 50.5212 9.68969 50.5458 9.65393C50.5704 9.61817 50.6061 9.59149 50.6473 9.57798H50.7462C50.8402 9.59633 50.9368 9.59633 51.0307 9.57798C51.1376 9.52578 51.234 9.45453 51.3152 9.36772C51.4245 9.22261 51.5159 9.06479 51.5873 8.89772C51.7204 8.63797 51.8241 8.36417 51.8965 8.0814C52.0078 7.75982 52.1191 7.3393 52.2428 6.84456C52.3665 6.34982 52.4902 5.76851 52.6262 5.10061C52.6481 4.97896 52.699 4.86439 52.7747 4.76667C52.858 4.73297 52.9511 4.73297 53.0344 4.76667L56.0276 5.05114C56.0754 5.05206 56.1224 5.06363 56.1652 5.08503C56.208 5.10643 56.2455 5.1371 56.2749 5.17482C56.2961 5.22144 56.3071 5.27204 56.3071 5.32325C56.3071 5.37445 56.2961 5.42505 56.2749 5.47167L55.7555 11.0127ZM46.5781 5.86746L45.9102 8.5143L47.6418 8.39061L46.5781 5.86746ZM49.7197 10.1222C49.7197 10.2335 49.7939 10.3325 49.8063 10.3943C49.8193 10.4169 49.8261 10.4425 49.8261 10.4685C49.8261 10.4946 49.8193 10.5202 49.8063 10.5427C49.7606 10.5893 49.6983 10.616 49.6331 10.6169H49.262H48.891H48.6807H48.5818C48.5794 10.584 48.5794 10.5509 48.5818 10.518L48.087 9.28114L45.7123 9.57798L45.4155 10.8148C45.4224 10.8558 45.4224 10.8976 45.4155 10.9385C45.3958 10.9723 45.3653 10.9985 45.3289 11.0127H45.131H44.8094H44.4631C44.3996 11.0151 44.3376 10.993 44.2899 10.9509C44.2789 10.9277 44.2732 10.9023 44.2732 10.8767C44.2732 10.851 44.2789 10.8256 44.2899 10.8025C44.2762 10.7123 44.2762 10.6205 44.2899 10.5303L45.7247 5.00167C45.7157 4.95676 45.7157 4.91052 45.7247 4.86561C45.7535 4.82747 45.7919 4.79761 45.836 4.77903C45.9099 4.76931 45.9847 4.76931 46.0586 4.77903H46.4544H46.8873H47.1594C47.2115 4.78856 47.2592 4.81457 47.2955 4.85325C47.328 4.89391 47.3531 4.93996 47.3697 4.9893L49.7197 10.1222ZM42.9418 11.0622C42.9542 11.094 42.9542 11.1293 42.9418 11.1611L42.8676 11.2477L42.682 11.3219C42.5922 11.3651 42.4963 11.3943 42.3976 11.4085C42.3008 11.4385 42.2014 11.4592 42.1007 11.4703H41.9152C41.8749 11.4827 41.8318 11.4827 41.7915 11.4703C41.7857 11.4459 41.7857 11.4205 41.7915 11.3961L41.136 8.99667L38.922 9.57798L39.5157 11.9775C39.5215 11.9912 39.5245 12.0059 39.5245 12.0207C39.5245 12.0356 39.5215 12.0503 39.5157 12.064L39.4291 12.1506L39.256 12.2372L38.9715 12.3238H38.6747C38.6091 12.3338 38.5424 12.3338 38.4768 12.3238C38.4402 12.3327 38.402 12.3327 38.3655 12.3238C38.36 12.3122 38.3571 12.2995 38.3571 12.2867C38.3571 12.2738 38.36 12.2612 38.3655 12.2496L36.906 6.64667C36.9009 6.61803 36.9009 6.58872 36.906 6.56009L36.9802 6.47351L37.1657 6.3993L37.4502 6.30035H37.747H37.9449C37.9806 6.28591 38.0206 6.28591 38.0563 6.30035V6.37456L38.6005 8.5514L40.8144 7.99482L40.2702 5.81798C40.2644 5.80428 40.2614 5.78956 40.2614 5.77469C40.2614 5.75982 40.2644 5.7451 40.2702 5.7314C40.2875 5.69689 40.3129 5.66715 40.3444 5.64482L40.5176 5.55825L40.8144 5.47167L41.1113 5.40982H41.2968C41.3325 5.39538 41.3724 5.39538 41.4081 5.40982H41.4699L42.9418 11.0622ZM27.7781 11.6682L27.2463 12.0517C27.0667 12.1489 26.9039 12.2741 26.7639 12.4227C26.6803 12.5138 26.6208 12.6244 26.5907 12.7443C26.5601 12.8535 26.5601 12.969 26.5907 13.0782C26.6297 13.1939 26.6794 13.3057 26.7392 13.4122C26.805 13.5167 26.8887 13.6088 26.9865 13.6843C27.0786 13.7514 27.1841 13.7978 27.2957 13.8203C27.4182 13.8447 27.5443 13.8447 27.6668 13.8203C27.8494 13.7595 28.0239 13.6764 28.1863 13.573L28.7428 13.2143L27.7781 11.6682ZM31.4886 15.2303C31.4944 15.244 31.4974 15.2588 31.4974 15.2736C31.4974 15.2885 31.4944 15.3032 31.4886 15.3169C31.4999 15.3489 31.4999 15.3839 31.4886 15.4159L31.3526 15.5519L31.1052 15.7251L30.8455 15.8735L30.6599 15.9477H30.5363C30.5296 15.9276 30.5296 15.906 30.5363 15.8859L29.2994 13.9564L28.916 14.2038C28.7876 14.2765 28.6743 14.3731 28.582 14.4882C28.5172 14.5724 28.4708 14.6694 28.446 14.7727C28.4272 14.8915 28.4272 15.0126 28.446 15.1314C28.4607 15.2813 28.4855 15.4301 28.5202 15.5767L28.8418 16.9372V17.0609C28.8237 17.1058 28.7987 17.1475 28.7676 17.1846L28.6192 17.3206L28.347 17.4938C28.2528 17.5593 28.1536 17.6172 28.0502 17.6669L27.8647 17.7411H27.6544H27.5926V17.6298C27.5669 17.5613 27.5462 17.4911 27.5307 17.4196L27.2834 16.1827C27.2471 16.0369 27.2264 15.8876 27.2215 15.7375C27.2091 15.6099 27.2091 15.4815 27.2215 15.354C27.2431 15.245 27.272 15.1376 27.3081 15.0325C27.3489 14.9309 27.4029 14.8353 27.4689 14.748C27.2921 14.8026 27.1094 14.8358 26.9247 14.8469C26.7612 14.878 26.5934 14.878 26.4299 14.8469C26.2747 14.7932 26.1318 14.7091 26.0094 14.5996C25.8654 14.4823 25.7438 14.3398 25.6507 14.179C25.5089 13.9659 25.4121 13.726 25.3663 13.474C25.3244 13.2336 25.3458 12.9864 25.4281 12.7567C25.5168 12.5036 25.6509 12.2689 25.8239 12.064C26.0999 11.7778 26.4117 11.5284 26.7515 11.3219L27.9884 10.5303C28.0726 10.5021 28.1638 10.5021 28.2481 10.5303C28.3021 10.5413 28.3527 10.5649 28.3957 10.5994C28.4388 10.6338 28.473 10.678 28.4955 10.7282L31.4886 15.2303ZM21.5939 16.5414L22.6823 19.0151L23.9439 17.9143L21.5939 16.5414ZM26.6649 18.0256C26.7501 18.0686 26.8291 18.1226 26.8999 18.1864C26.922 18.2018 26.9402 18.222 26.9531 18.2457C26.966 18.2693 26.9732 18.2956 26.9742 18.3225C26.9573 18.3844 26.923 18.4403 26.8752 18.4832C26.8752 18.5575 26.7268 18.6317 26.6155 18.743C26.5223 18.8284 26.4231 18.9069 26.3186 18.978L26.1578 19.1017C26.1173 19.1121 26.0747 19.1121 26.0342 19.1017H25.9352L24.8097 18.4585L23.1028 19.9798L23.6099 21.1301C23.6146 21.1712 23.6146 21.2127 23.6099 21.2538C23.6186 21.271 23.6232 21.2901 23.6232 21.3094C23.6232 21.3288 23.6186 21.3478 23.6099 21.3651C23.5778 21.4251 23.5361 21.4794 23.4863 21.5259C23.4863 21.5877 23.3502 21.6619 23.2513 21.7609L22.9915 21.9711C22.9418 22.0096 22.8812 22.0312 22.8184 22.033C22.7713 22.0199 22.7313 21.9888 22.7071 21.9464C22.6559 21.8693 22.6144 21.7862 22.5834 21.699L20.3818 16.393C20.3579 16.3516 20.3453 16.3047 20.3453 16.2569C20.3453 16.2092 20.3579 16.1622 20.3818 16.1209L20.5302 15.9353L20.8147 15.6756L21.1486 15.3911C21.2146 15.3303 21.2897 15.2802 21.3713 15.2427C21.4202 15.2327 21.4707 15.2327 21.5197 15.2427L21.6681 15.3046L26.6649 18.0256ZM21.8536 22.8988C21.8591 22.9104 21.862 22.923 21.862 22.9359C21.862 22.9487 21.8591 22.9614 21.8536 22.973C21.8653 23.0134 21.8653 23.0563 21.8536 23.0967L21.7671 23.2574C21.7161 23.3445 21.6582 23.4272 21.5939 23.5048L21.3836 23.7274C21.3451 23.7756 21.2992 23.8174 21.2476 23.8511C21.2117 23.8644 21.1722 23.8644 21.1363 23.8511C21.1228 23.8577 21.108 23.8611 21.093 23.8611C21.078 23.8611 21.0632 23.8577 21.0497 23.8511L19.0955 22.3174L17.6731 24.1109L19.6026 25.6569C19.6081 25.6685 19.6109 25.6812 19.6109 25.694C19.6109 25.7069 19.6081 25.7195 19.6026 25.7311C19.6026 25.7311 19.6026 25.793 19.6026 25.8424C19.5813 25.9036 19.5522 25.9618 19.516 26.0156C19.4651 26.1026 19.4072 26.1854 19.3428 26.263C19.2789 26.3428 19.2086 26.4172 19.1326 26.4856C19.0931 26.5375 19.0423 26.5798 18.9842 26.6093C18.9521 26.6206 18.9172 26.6206 18.8852 26.6093C18.8715 26.6151 18.8568 26.6181 18.8419 26.6181C18.8271 26.6181 18.8123 26.6151 18.7986 26.6093L14.3213 23.0225C14.2945 23.0036 14.2731 22.978 14.2594 22.9482C14.2489 22.9077 14.2489 22.8651 14.2594 22.8246C14.2594 22.8246 14.2594 22.7256 14.346 22.6514L14.5192 22.4164L14.7171 22.1814C14.7668 22.1354 14.8206 22.094 14.8778 22.0577H14.9768H15.0634L16.8197 23.4677L18.2421 21.6743L16.5228 20.2643C16.5228 20.2643 16.5228 20.2643 16.5228 20.1901C16.5112 20.1497 16.5112 20.1068 16.5228 20.0664C16.5471 20.0105 16.5761 19.9567 16.6094 19.9056C16.6621 19.8167 16.7243 19.7337 16.7949 19.6582L16.9928 19.4232L17.1289 19.2996H17.2526H17.3392L21.8536 22.8988ZM15.9168 28.0069C15.793 27.938 15.6596 27.888 15.521 27.8585C15.4034 27.8276 15.2799 27.8276 15.1623 27.8585C15.0306 27.8974 14.9112 27.9698 14.816 28.0688C14.6655 28.2211 14.5403 28.3965 14.4449 28.5882L14.0492 29.2561L15.756 30.2085L16.1147 29.553C16.2317 29.3624 16.3154 29.1533 16.3621 28.9346C16.3951 28.8005 16.3951 28.6604 16.3621 28.5264C16.3275 28.4092 16.2637 28.3028 16.1765 28.2172C16.1049 28.1304 16.0166 28.0589 15.9168 28.0069ZM16.4486 26.8319C16.6815 26.9707 16.8938 27.1414 17.0794 27.339C17.2488 27.5358 17.3714 27.7684 17.4381 28.0193C17.5003 28.3087 17.5003 28.608 17.4381 28.8974C17.343 29.3324 17.1803 29.7498 16.9557 30.1343L16.2136 31.4701L16.1147 31.5938C16.0788 31.607 16.0393 31.607 16.0034 31.5938C15.9546 31.6058 15.9037 31.6058 15.8549 31.5938C15.7978 31.6048 15.739 31.6048 15.6818 31.5938L10.821 28.8727V28.7614C10.8368 28.6924 10.8617 28.6259 10.8952 28.5635C10.9334 28.4734 10.9789 28.3865 11.0313 28.3038C11.0746 28.2138 11.1242 28.127 11.1797 28.044L11.3034 27.8956C11.3354 27.8843 11.3703 27.8843 11.4023 27.8956C11.4341 27.8832 11.4695 27.8832 11.5013 27.8956L13.3071 28.9098L13.7276 28.1553C13.9019 27.8278 14.1181 27.5243 14.3707 27.2524C14.5553 27.0624 14.779 26.9147 15.0263 26.8196C15.2545 26.7316 15.5001 26.6977 15.7436 26.7206C16.0131 26.7432 16.2746 26.8234 16.5105 26.9556M15.1005 33.3377C15.1005 33.3377 15.1005 33.3377 15.1747 33.3377C15.2489 33.3377 15.1747 33.3996 15.1747 33.449C15.1785 33.5149 15.1785 33.581 15.1747 33.6469C15.1471 33.7435 15.114 33.8385 15.0757 33.9314C15.045 34.0286 15.0078 34.1236 14.9644 34.2159C14.9408 34.2721 14.9119 34.326 14.8778 34.3767C14.8513 34.409 14.8174 34.4345 14.7789 34.4509C14.7654 34.4574 14.7506 34.4608 14.7356 34.4608C14.7206 34.4608 14.7058 34.4574 14.6923 34.4509L10.0294 32.8306L9.59653 34.0674C10.2521 34.4014 10.8334 34.6982 11.2786 34.958C11.7239 35.2177 12.1568 35.4774 12.5155 35.7001C12.7909 35.8947 13.0514 36.1097 13.2947 36.3432C13.464 36.5135 13.5985 36.7151 13.6905 36.9369C13.776 37.1312 13.81 37.3441 13.7894 37.5553C13.7711 37.7838 13.7212 38.0086 13.641 38.2232C13.6232 38.2579 13.6025 38.291 13.5792 38.3222C13.569 38.3398 13.5547 38.3547 13.5374 38.3655C13.5202 38.3763 13.5005 38.3827 13.4802 38.384C13.4315 38.3966 13.3805 38.3966 13.3318 38.384L13.0968 38.3098L12.8123 38.1861C12.748 38.1663 12.6889 38.1325 12.6392 38.0872C12.6172 38.0858 12.5958 38.0795 12.5765 38.0688C12.5573 38.0581 12.5406 38.0433 12.5278 38.0253C12.5218 37.9968 12.5218 37.9673 12.5278 37.9388C12.5459 37.8448 12.5459 37.7483 12.5278 37.6543C12.513 37.5366 12.4659 37.4253 12.3918 37.3327C12.2808 37.1855 12.152 37.0526 12.0084 36.9369C11.7855 36.7554 11.5499 36.5901 11.3034 36.4422C11.0065 36.2608 10.6355 36.0505 10.1902 35.8114C9.74495 35.564 9.21311 35.3043 8.60706 34.9951C8.49378 34.9542 8.39491 34.8811 8.32258 34.7848C8.30421 34.7418 8.29474 34.6955 8.29474 34.6488C8.29474 34.602 8.30421 34.5557 8.32258 34.5127L9.33679 31.6803C9.35135 31.6343 9.37537 31.5918 9.40732 31.5556C9.43927 31.5194 9.47844 31.4903 9.52232 31.4701C9.56893 31.4489 9.61954 31.4379 9.67074 31.4379C9.72194 31.4379 9.77255 31.4489 9.81916 31.4701L15.1005 33.3377ZM7.93916 41.0309L10.3386 42.3419L10.6355 40.6351L7.93916 41.0309ZM12.8865 39.0395C12.9811 39.0297 13.0764 39.0297 13.171 39.0395C13.171 39.0395 13.2823 39.0396 13.3071 39.1014C13.3318 39.1632 13.3071 39.2003 13.3071 39.2869C13.3071 39.3735 13.3071 39.4972 13.3071 39.6456C13.3071 39.794 13.2452 39.9301 13.2328 40.0167C13.2205 40.1032 13.2328 40.1774 13.2328 40.2269L13.1586 40.3011C13.1225 40.3134 13.0834 40.3134 13.0473 40.3011L11.8105 40.4867L11.4147 42.7624L12.5278 43.3438H12.6268C12.6357 43.3803 12.6357 43.4185 12.6268 43.4551C12.6392 43.5205 12.6392 43.5876 12.6268 43.653C12.636 43.76 12.636 43.8676 12.6268 43.9745C12.6102 44.0875 12.5854 44.1991 12.5526 44.3085C12.5503 44.3399 12.5415 44.3705 12.5265 44.3982C12.5116 44.4259 12.491 44.4501 12.466 44.4693C12.4141 44.4882 12.3571 44.4882 12.3052 44.4693L12.0578 44.3456L6.86311 41.6493L6.73943 41.5627C6.72842 41.518 6.72842 41.4713 6.73943 41.4267C6.72823 41.3529 6.72823 41.2778 6.73943 41.204C6.73943 41.1051 6.73943 40.9814 6.73943 40.8206C6.73943 40.6598 6.73943 40.4867 6.826 40.3753C6.84556 40.2914 6.87034 40.2088 6.90022 40.128C6.92671 40.0856 6.96016 40.0479 6.99916 40.0167C7.05182 40.0025 7.10729 40.0025 7.15995 40.0167L12.8865 39.0395ZM8.13706 46.1638C7.954 46.146 7.76965 46.1803 7.60521 46.2627C7.4823 46.3225 7.37608 46.4117 7.296 46.5224C7.22237 46.6293 7.17569 46.7523 7.15995 46.8811C7.14657 47.0044 7.14657 47.1289 7.15995 47.2522V47.784H9.22548V47.2274C9.20862 47.0693 9.16687 46.9149 9.10179 46.7698C9.06013 46.6465 8.98777 46.5358 8.89153 46.4482C8.79351 46.3528 8.67509 46.2809 8.54521 46.238C8.4065 46.1876 8.25989 46.1625 8.11232 46.1638M8.11232 44.8527C8.42206 44.8591 8.72803 44.922 9.01521 45.0382C9.26751 45.1528 9.49136 45.3218 9.67074 45.533C9.85817 45.7559 9.99339 46.0179 10.0665 46.2998C10.1578 46.6424 10.1954 46.997 10.1778 47.3511V47.9201H12.1321C12.1561 47.9116 12.1823 47.9116 12.2063 47.9201C12.2177 47.9563 12.2177 47.9952 12.2063 48.0314C12.2109 48.0931 12.2109 48.1552 12.2063 48.2169C12.2126 48.3158 12.2126 48.4149 12.2063 48.5138C12.2139 48.6167 12.2139 48.72 12.2063 48.823C12.2144 48.8845 12.2144 48.9469 12.2063 49.0085C12.2123 49.0412 12.2123 49.0747 12.2063 49.1074H12.1197L6.61574 48.959C6.55653 48.9615 6.49743 48.9518 6.44212 48.9306C6.3868 48.9093 6.33644 48.8769 6.29416 48.8353C6.22005 48.7496 6.18039 48.6394 6.18285 48.5261V47.079V46.6709C6.19926 46.513 6.22403 46.3561 6.25706 46.2009C6.30937 46.0113 6.38411 45.8286 6.47969 45.6567C6.57627 45.4769 6.70643 45.3174 6.86311 45.1867C7.01665 45.0501 7.19816 44.9488 7.39495 44.8898C7.61618 44.8275 7.84543 44.7983 8.07521 44.8032M11.7857 50.7524H12.0207H12.1692C12.1976 50.7456 12.2273 50.7456 12.2557 50.7524C12.2615 50.7661 12.2645 50.7809 12.2645 50.7957C12.2645 50.8106 12.2615 50.8253 12.2557 50.839L12.6144 53.8817C12.6228 53.9783 12.5965 54.0748 12.5402 54.1538C12.5095 54.1979 12.4689 54.2343 12.4217 54.2601C12.3745 54.2859 12.3219 54.3003 12.2681 54.3022L6.96206 54.9082C6.90851 54.9237 6.85185 54.925 6.79764 54.912C6.74343 54.899 6.69353 54.8721 6.65285 54.834C6.58579 54.7723 6.5421 54.6893 6.52916 54.599L6.24469 51.6306C6.2389 51.6062 6.2389 51.5808 6.24469 51.5564C6.26353 51.5296 6.28914 51.5082 6.3189 51.4945C6.36796 51.4855 6.41826 51.4855 6.46732 51.4945H6.70232H6.92495H7.07337C7.10146 51.4851 7.13186 51.4851 7.15995 51.4945C7.16844 51.5186 7.16844 51.5447 7.15995 51.5688L7.41969 53.7332L8.89153 53.5601L8.73074 51.7048C8.72131 51.6767 8.72131 51.6463 8.73074 51.6182L8.80495 51.5564C8.84963 51.5454 8.89632 51.5454 8.941 51.5564H9.16364H9.53469H9.62127V51.6306L9.83153 53.4611L11.5755 53.2385L11.3281 51.0493C11.3221 51.0207 11.3221 50.9913 11.3281 50.9627C11.3469 50.9359 11.3726 50.9146 11.4023 50.9009C11.4514 50.8918 11.5017 50.8918 11.5507 50.9009H11.7734M8.49574 59.0516L8.89153 60.4245L10.1284 60.239L11.0931 60.1401H11.8228H12.3671L12.8123 60.1648L13.1339 60.2761L12.4413 57.889L8.49574 59.0516ZM14.2594 55.3411H14.3336C14.3619 55.3332 14.3919 55.3332 14.4202 55.3411C14.4524 55.3865 14.4774 55.4366 14.4944 55.4895L14.581 55.7369C14.581 55.8482 14.581 55.9224 14.6428 55.9966C14.6482 56.0542 14.6482 56.1122 14.6428 56.1698C14.6499 56.2024 14.6499 56.2361 14.6428 56.2688H14.5686L13.1834 56.6645L14.2965 60.573L15.6694 60.2885H15.756C15.7905 60.3057 15.8202 60.3312 15.8426 60.3627L15.9168 60.5111L16.0034 60.7585C16.0034 60.8698 16.0034 60.9564 16.0652 61.0306C16.0705 61.0841 16.0705 61.1379 16.0652 61.1914C16.0742 61.2238 16.0742 61.258 16.0652 61.2903H15.991L13.876 61.8964C13.8464 61.9151 13.8121 61.925 13.7771 61.925C13.742 61.925 13.7077 61.9151 13.6781 61.8964C13.6505 61.8805 13.6263 61.8591 13.6072 61.8336C13.588 61.8081 13.5743 61.779 13.5668 61.748L13.4802 61.5253C13.3565 61.4752 13.2281 61.4379 13.0968 61.414C12.9536 61.3627 12.8035 61.3335 12.6515 61.3274H12.0702H11.2539C10.9447 61.3274 10.5736 61.4016 10.1407 61.4635C9.70785 61.5253 9.21311 61.5995 8.64416 61.6985C8.53884 61.7268 8.4279 61.7268 8.32258 61.6985C8.27939 61.6811 8.24168 61.6524 8.21339 61.6154C8.18511 61.5784 8.16728 61.5345 8.16179 61.4882L7.296 58.4827C7.27431 58.4406 7.26299 58.394 7.26299 58.3467C7.26299 58.2993 7.27431 58.2527 7.296 58.2106C7.35418 58.1242 7.44232 58.0625 7.54337 58.0374L12.0826 56.8006L11.9342 56.3059C11.9179 56.2754 11.9094 56.2414 11.9094 56.2069C11.9094 56.1724 11.9179 56.1384 11.9342 56.108C11.9342 56.108 12.0207 56.0338 12.0949 56.009L14.2594 55.3411ZM14.5686 62.7622L14.7789 62.6756H14.9273H15.0263H15.0881L16.3992 65.4585C16.4293 65.5467 16.4293 65.6424 16.3992 65.7306C16.3832 65.7832 16.3546 65.831 16.3157 65.8698C16.2769 65.9086 16.2291 65.9373 16.1765 65.9532L11.3528 68.229C11.3024 68.2523 11.2476 68.2644 11.1921 68.2644C11.1365 68.2644 11.0817 68.2523 11.0313 68.229C10.9452 68.1868 10.8756 68.1172 10.8334 68.0311L9.59653 65.2606C9.59074 65.2362 9.59074 65.2108 9.59653 65.1864C9.59247 65.1577 9.59247 65.1285 9.59653 65.0998L9.72021 65.0009L9.93048 64.8895L10.1407 64.803H10.2892H10.3386L11.2786 66.7695L12.6268 66.1388L11.8352 64.469C11.8284 64.4406 11.8284 64.4109 11.8352 64.3824V64.2959L11.9589 64.1969L12.1568 64.098L12.3671 64.0114H12.5031H12.6021C12.6064 64.0318 12.6064 64.0528 12.6021 64.0732L13.3813 65.7553L14.9397 65.0132L13.9997 63.0219C13.9939 63.0082 13.9909 62.9935 13.9909 62.9786C13.9909 62.9638 13.9939 62.949 13.9997 62.9353C13.9997 62.9353 13.9997 62.9353 13.9997 62.8488L14.1234 62.7498L14.5686 62.7622ZM15.5457 72.8919C15.6841 73.049 15.847 73.1826 16.0281 73.2877C16.1735 73.3795 16.3391 73.4347 16.5105 73.4485C16.6615 73.4788 16.8171 73.4788 16.9681 73.4485C17.1229 73.3969 17.2689 73.3218 17.401 73.2259C17.5577 73.1175 17.6992 72.9885 17.8215 72.8424C17.9288 72.7225 18.0053 72.5781 18.0442 72.4219C18.0813 72.2591 18.0813 72.09 18.0442 71.9272C18.0046 71.718 17.9293 71.5171 17.8215 71.3335L15.5457 72.8919ZM15.286 69.9977C15.134 70.0978 14.9966 70.2185 14.8778 70.3564C14.7705 70.4764 14.6941 70.6207 14.6552 70.7769C14.6177 70.9397 14.6177 71.1089 14.6552 71.2716C14.6948 71.4809 14.7701 71.6817 14.8778 71.8653L17.1784 70.2698C17.0434 70.1059 16.88 69.9676 16.696 69.8616C16.5518 69.7827 16.3933 69.7333 16.2298 69.7163C16.0663 69.6993 15.901 69.7151 15.7436 69.7627C15.5845 69.8188 15.4345 69.8979 15.2984 69.9977M14.5192 68.9464C14.7779 68.7571 15.0725 68.6224 15.3849 68.5506C15.6702 68.4887 15.9655 68.4887 16.2507 68.5506C16.557 68.6165 16.8471 68.7426 17.1042 68.9216C17.4156 69.1363 17.6947 69.3946 17.9328 69.6885L18.5018 69.2803C18.5336 69.2679 18.5689 69.2679 18.6007 69.2803C18.6327 69.269 18.6677 69.269 18.6997 69.2803L18.8357 69.404L19.0089 69.6514C19.0707 69.7503 19.1326 69.8245 19.1697 69.8988C19.1999 69.9496 19.2248 70.0035 19.2439 70.0595C19.2544 70.1001 19.2544 70.1427 19.2439 70.1832C19.2314 70.2137 19.2098 70.2396 19.1821 70.2574L18.6007 70.6656C18.8062 70.9761 18.9685 71.3132 19.0831 71.6674C19.1773 71.9585 19.2069 72.2667 19.1697 72.5703C19.1316 72.859 19.0256 73.1345 18.8605 73.3743C18.6628 73.6481 18.4203 73.8864 18.1431 74.0793C17.8904 74.258 17.6044 74.3842 17.3021 74.4503C17.021 74.5124 16.7297 74.5124 16.4486 74.4503C16.1431 74.3889 15.8529 74.2669 15.5952 74.0916C15.2815 73.8798 15.002 73.6212 14.7665 73.3248L14.2099 73.7082H14.1234C14.0906 73.7135 14.0572 73.7135 14.0244 73.7082C13.9774 73.6685 13.9359 73.6227 13.9007 73.5722C13.8296 73.5016 13.7673 73.4227 13.7152 73.3372L13.5544 73.0898C13.5215 73.036 13.4965 72.9776 13.4802 72.9166C13.4715 72.8994 13.467 72.8803 13.467 72.861C13.467 72.8417 13.4715 72.8226 13.4802 72.8053L14.0492 72.3972C13.8649 72.0907 13.7195 71.7624 13.6163 71.4201C13.5221 71.129 13.4925 70.8209 13.5297 70.5172C13.5576 70.2281 13.6598 69.9511 13.8265 69.7132C14.0116 69.4197 14.2459 69.1603 14.5192 68.9464Z" fill="white"/>
<path d="M69.2989 77.5301L69.1134 77.3075C68.7455 76.9508 68.3023 76.6812 67.8164 76.5185C67.3305 76.3559 66.8143 76.3042 66.3058 76.3675C65.5709 76.3785 64.84 76.4782 64.1289 76.6643C63.4239 76.8375 62.5458 77.122 61.4944 77.4806C61.3838 77.2454 61.2378 77.0285 61.0616 76.8375C60.5193 76.3631 59.8836 76.0079 59.1954 75.7949C58.5072 75.5818 57.7819 75.5156 57.0666 75.6006C53.6655 75.7822 50.3198 76.5392 47.1718 77.8393C44.9987 78.738 42.6823 79.2407 40.3321 79.3235C38.0014 79.2698 35.7401 78.5203 33.8387 77.1714L32.9852 76.6643L31.9092 76.0212L31.7113 77.258L29.485 90.3191L30.2889 90.6654L30.6724 88.402L32.4905 77.3941L33.3439 77.9012C34.7905 78.8583 36.4069 79.5301 38.1058 79.8801C38.8486 80.0139 39.602 80.0802 40.3568 80.078C42.805 79.9936 45.2181 79.4699 47.481 78.532C50.5362 77.2769 53.7808 76.5452 57.0789 76.3675C57.6222 76.3577 58.1651 76.4033 58.6992 76.5035C59.363 76.5855 59.9808 76.8857 60.4555 77.357C60.7433 77.6727 60.9098 78.0803 60.9255 78.5072C62.2242 78.0743 63.3992 77.6538 64.3392 77.4435C64.9821 77.2777 65.642 77.1864 66.3058 77.1714H66.8871L67.2581 77.2333C67.5356 77.2849 67.8029 77.3809 68.0497 77.5177C68.3094 77.6538 68.8289 77.1714 68.8289 77.1714L66.5655 92.0135L67.32 91.692C67.3818 91.3333 67.4313 90.9622 67.4931 90.5664C67.7405 89.0451 67.9384 87.9443 67.9384 87.932V87.6475V87.3012C68.1116 86.2498 68.2723 85.2109 68.4331 84.2338C68.8908 81.3149 69.2866 78.9401 69.336 78.5938V78.3093V77.9259L69.2989 77.5301Z" fill="#0066B3"/>
<path d="M49.9176 82.1311C40.99 82.0527 32.4476 78.4837 26.1178 72.1875C19.7879 65.8914 16.1734 57.3681 16.0473 48.441C15.9213 39.514 19.2937 30.892 25.4433 24.4197C31.5928 17.9473 40.0311 14.1385 48.9529 13.808H49.9547C58.9395 13.7957 67.5674 17.3235 73.9696 23.6273C80.3717 29.9311 84.0328 38.5033 84.1596 47.4871C84.2865 56.471 80.869 65.1431 74.6474 71.6252C68.4258 78.1073 59.901 81.8773 50.9195 82.1188H49.9176M49.9176 82.9598H50.9442C60.1524 82.7155 68.8934 78.8526 75.2731 72.2081C81.6528 65.5636 85.1573 56.6728 85.0271 47.4624C84.897 38.2519 81.1426 29.4637 74.5777 23.0021C68.0128 16.5406 59.1661 12.9262 49.9547 12.9422H48.9282C39.6416 13.0734 30.7875 16.8883 24.3137 23.5477C17.8399 30.2071 14.2767 39.1654 14.4079 48.4519C14.5391 57.7385 18.354 66.5926 25.0134 73.0664C31.6728 79.5402 40.6311 83.1034 49.9176 82.9722" fill="white"/>
<path d="M57.0789 76.3674C57.6747 76.2946 58.279 76.3437 58.8552 76.5117C59.4314 76.6797 59.9675 76.963 60.4308 77.3445C60.724 77.6667 60.891 78.084 60.9008 78.5195C62.2118 78.0743 63.3744 77.6538 64.3392 77.4435C64.9821 77.2777 65.642 77.1864 66.3058 77.1714C67.8147 77.1714 68.1734 77.4806 68.2847 77.5919L68.8289 77.1961L65.7863 96.5403L64.97 96.0827C64.5231 95.8521 64.0256 95.7373 63.5229 95.7487C61.5315 95.973 59.5917 96.5291 57.7839 97.3937C56.4545 98.0206 55.0611 98.5017 53.6281 98.8285C53.2434 98.8885 52.8549 98.9216 52.4655 98.9274C50.6721 98.9274 50.3876 97.9627 50.3505 97.4803L50.4618 96.4785L49.0271 97.0227C48.0747 97.3937 47.1718 97.7401 46.3802 98.0122C44.7839 98.5342 43.1123 98.7891 41.4329 98.7666C37.3224 98.832 33.282 97.6972 29.8066 95.5014L29.485 95.2664L32.441 77.394L33.2945 77.9011C35.3831 79.3251 37.8537 80.0839 40.3816 80.078C42.8297 79.9936 45.2428 79.4699 47.5058 78.5319C50.5535 77.2807 53.7894 76.549 57.0789 76.3674Z" fill="white"/>
<path d="M51.9955 90.084L51.0184 97.1093C50.7587 98.3461 52.2552 98.3461 53.4921 98.1854C56.6955 97.703 62.2984 93.8688 65.2421 95.5138C65.675 92.0135 66.4789 87.5361 66.4789 87.5361C66.4789 87.5361 65.7492 86.5219 62.991 87.1898C60.2329 87.8577 54.0734 90.5046 52.0079 90.084" fill="#ED1C24"/>
<path d="M66.1573 89.5522C66.4665 87.598 66.7881 85.5077 67.085 83.6524C66.5252 83.3725 65.9151 83.2075 65.2906 83.1671C64.666 83.1268 64.0398 83.2119 63.4486 83.4174C60.7647 84.073 54.8897 86.5714 52.6758 86.3364L51.8594 91.5682C52.1068 92.4216 53.0963 92.6319 54.4073 92.5206C57.6108 92.2608 63.2013 88.0185 66.1573 89.5522Z" fill="#0066B3"/>
<path d="M50.9441 97.5669C51.142 96.2311 52.9849 96.1817 54.197 96.2435C55.4091 96.3053 57.6601 96.2435 57.8457 95.2911C58.0683 93.9801 58.1672 92.3722 58.1672 92.3722L51.7604 92.4464L50.9441 97.5669Z" fill="#BE1E2D"/>
<path d="M30.2271 94.982L31.7113 86.1014C34.2963 87.6351 38.3531 89.812 46.6399 86.6333C53.2818 84.0854 59.4536 83.6278 59.1568 86.2622L57.7963 95.353C58.291 92.2362 50.3752 95.9591 46.1823 97.4185C41.6678 98.9893 34.2097 97.8514 30.2271 94.9448" fill="#ED1C24"/>
<path d="M46.9368 84.7903C38.9221 87.8577 34.7168 85.1243 32.0947 83.5535L31.13 89.3048C33.4495 90.8194 36.1021 91.7481 38.8598 92.011C41.6175 92.2738 44.3978 91.863 46.9616 90.8137C50.6721 89.379 57.9324 86.8806 58.7363 89.1193C59.0208 87.2393 59.3053 85.2479 59.5526 83.5164C58.526 81.8219 52.7995 82.5269 46.9121 84.7532" fill="#0066B3"/>
<path d="M65.6131 53.5601C65.6131 53.4859 65.4647 53.2014 65.2915 52.818C65.4348 52.9021 65.5835 52.9764 65.7368 53.0406L66.0089 53.523C65.8784 53.5386 65.75 53.5676 65.6255 53.6095M62.4591 53.6095C62.4591 52.954 62.2983 52.5335 62.1005 51.1359C62.4379 52.0212 62.7229 52.9257 62.9539 53.8445C62.7938 53.774 62.6283 53.7161 62.4591 53.6714M61.0491 61.649C61.0491 61.649 61.0491 61.649 61.0491 61.748ZM61.0491 62.6261C61.0541 62.5768 61.0541 62.527 61.0491 62.4777C61.0422 62.5186 61.0422 62.5604 61.0491 62.6014M65.477 67.0169L64.7597 68.5877L63.931 68.1919L64.4876 66.9551C64.8365 67.0004 65.1899 67.0004 65.5389 66.9551M66.3057 66.7324L66.1078 67.153L65.6502 66.9427C65.8762 66.8987 66.0963 66.8281 66.3057 66.7324ZM41.2597 70.814C41.2998 70.6599 41.3861 70.5218 41.507 70.4182C41.4916 70.5083 41.4916 70.6003 41.507 70.6903L41.2597 70.814ZM38.8355 62.5272C38.8424 62.4862 38.8424 62.4444 38.8355 62.4035C38.8421 62.4527 38.8421 62.5027 38.8355 62.5519M35.4589 56.4543L34.5189 56.0214C34.4689 55.7952 34.3699 55.5827 34.2289 55.3989C34.0878 55.2151 33.9082 55.0645 33.7026 54.9577C33.78 54.8064 33.8119 54.6359 33.7943 54.4668C33.7768 54.2978 33.7105 54.1375 33.6036 54.0053C34.0984 53.3745 34.9394 51.5317 35.8794 50.0474C35.6692 51.643 32.9481 53.758 35.1002 55.304C36.5102 55.0938 37.2647 53.4117 37.8213 51.0988C38.0934 51.643 36.3989 54.0301 38.6994 54.8093C39.7136 54.6238 40.4557 52.6572 40.196 51.1853C40.309 51.2599 40.4165 51.3426 40.5176 51.4327C40.8268 51.0988 41.4452 51.0988 41.6678 50.6659L41.8781 50.8019C42.5707 51.9522 42.6202 54.129 41.6678 54.9206C41.9506 54.9351 42.2332 54.8887 42.4965 54.7845C42.4965 54.7845 42.4965 54.7845 42.3728 54.9824L42.2863 55.1185C41.7544 55.6256 41.606 55.7617 40.0599 55.539C40.0796 55.7092 40.1343 55.8735 40.2207 56.0214C39.4539 56.343 38.2047 56.2935 37.8584 58.3961C37.8395 58.3693 37.8139 58.348 37.7842 58.3343H37.7223C37.7223 58.3343 37.6234 58.3343 37.611 58.2477C37.5986 58.1611 37.611 58.1488 37.5244 58.124H37.2152L36.9802 58.2848C36.7823 58.3714 36.807 58.1735 36.4607 58.6682C36.4607 58.6682 36.4607 58.6682 36.4607 58.8661H36.3742L36.0526 58.7053C35.9529 58.6762 35.8574 58.6346 35.7681 58.5816L35.3847 58.4703L35.5702 58.5569L36.0031 58.7548L36.2628 58.8661L36.3123 59.0517L35.2734 58.5693H35.2115C35.1344 58.5214 35.0512 58.484 34.9642 58.458L34.5807 58.3467L35.4589 56.4543ZM68.2105 52.014C68.1859 52.082 68.1859 52.1563 68.2105 52.2243L68.0991 52.0635C68.1216 51.9403 68.1678 51.8227 68.2352 51.7172L68.3094 51.8038C68.2593 51.8645 68.2253 51.9368 68.2105 52.014ZM64.9328 52.014L65.2544 52.1377L65.4523 52.5088H65.1678L64.9328 51.9893M58.2168 55.5885C57.8651 55.4259 57.5808 55.1461 57.4128 54.7969C57.6761 54.901 57.9587 54.9474 58.2415 54.933C57.2891 54.1414 57.3386 51.9645 58.0312 50.8143L58.2415 50.6782C58.4641 51.1111 59.0826 51.1111 59.3918 51.4451C59.4928 51.3549 59.6003 51.2723 59.7133 51.1977C59.7231 52.0743 59.7809 52.9496 59.8865 53.8198C59.1522 54.2118 58.5659 54.8328 58.2168 55.5885ZM61.6057 68.699L59.9731 67.9445L61.0491 65.5327C61.5208 65.9167 62.0355 66.2446 62.5828 66.5098L61.6057 68.699ZM38.8849 62.1561V62.2922C38.8894 62.2593 38.8894 62.2261 38.8849 62.1932M67.3323 50.9503L67.7157 51.0617L67.8147 51.1853L67.4189 51.074C67.3973 51.0282 67.368 50.9863 67.3323 50.9503ZM64.4134 50.9503L64.636 51.074L64.8833 51.5193H64.6731C64.5906 51.3214 64.5041 51.1359 64.4134 50.9627M59.8989 62.2798C59.8932 62.3374 59.8932 62.3954 59.8989 62.453C59.9057 62.3955 59.9057 62.3373 59.8989 62.2798ZM55.3597 69.7874L56.1018 70.1832C56.1018 70.1832 55.8791 70.4801 55.1123 70.4801C55.1067 70.2721 55.0818 70.0651 55.0381 69.8616H55.3102M47.8891 68.3032L48.5818 67.9569C48.4436 68.5565 48.3404 69.1635 48.2726 69.7751C48.0462 69.7937 47.8187 69.7937 47.5923 69.7751C47.6435 69.272 47.7429 68.7749 47.8891 68.2909M43.8694 70.1832L44.2652 69.9853C44.258 70.1295 44.258 70.274 44.2652 70.4182C44.1906 70.4063 44.1193 70.3793 44.0555 70.3389C43.9917 70.2985 43.9368 70.2455 43.8941 70.1832M48.5199 66.5593L48.8786 66.7201C48.8728 66.7818 48.8728 66.8439 48.8786 66.9056L48.3097 67.1901C48.3839 66.9798 48.4705 66.7695 48.557 66.5593M55.8544 59.5588C54.7157 59.434 53.5718 59.7431 52.651 60.4245C52.7729 60.1278 52.9616 59.863 53.2023 59.6509C53.443 59.4387 53.7293 59.2848 54.039 59.2011C54.3488 59.1174 54.6736 59.1061 54.9884 59.1681C55.3033 59.2301 55.5996 59.3638 55.8544 59.5588ZM53.8755 64.3453C53.4415 64.1505 53.0274 63.9144 52.6386 63.6403H52.7005H52.9849C53.4355 63.6707 53.8567 63.8747 54.1599 64.2093L53.8755 64.3453ZM48.186 64.3453H48.0747C48.1984 64.2093 48.322 64.0732 48.4334 63.9248C48.3468 64.0609 48.2726 64.1969 48.186 64.3206M49.3362 64.3206C49.3362 64.1845 49.4228 64.0485 49.4476 63.9124C49.4476 64.0485 49.4476 64.1845 49.4476 64.3206M52.8984 65.7059L53.3312 65.4956C53.8398 65.8476 54.3012 66.2633 54.7041 66.7324C54.1274 66.5126 53.5726 66.2393 53.0468 65.9161L52.8984 65.7306M52.5891 64.9514V64.9885ZM50.5236 63.999C50.5764 64.2416 50.6425 64.4811 50.7215 64.7164H50.6226C50.6226 64.4938 50.5484 64.2711 50.5236 64.0361M54.3578 61.4388C54.6176 62.3045 55.1123 63.0961 56.9305 62.2798C56.9285 62.4503 56.9853 62.6163 57.0912 62.7498L54.3207 64.1227C54.3207 63.2569 53.6528 62.8859 53.0839 62.4901C53.2818 62.218 53.0839 62.0943 54.3207 61.3769M54.3207 61.3769C54.7826 61.2536 55.2688 61.2536 55.7307 61.3769C55.5177 61.5044 55.274 61.5718 55.0257 61.5718C54.7774 61.5718 54.5338 61.5044 54.3207 61.3769ZM57.5489 62.2056L57.722 62.3416H57.7962L57.3757 62.5519C57.4266 62.4452 57.4844 62.3419 57.5489 62.2427M57.3386 66.3985C56.5592 65.7924 55.7319 65.2506 54.8649 64.7782L58.3776 63.0219C58.4539 63.6262 58.4008 64.2399 58.2216 64.8221C58.0425 65.4042 57.7415 65.9416 57.3386 66.3985ZM46.7141 63.8135H46.6523L46.5286 63.7516L46.8255 63.6651C46.9491 63.6651 46.9368 63.6651 47.4191 63.5909C47.2738 63.7079 47.1209 63.8153 46.9615 63.9124H46.8378M45.4773 63.2816L45.3041 63.1951C45.3041 63.1951 45.3041 63.1951 45.1928 63.1951C45.1928 63.1951 45.1928 63.1951 45.0691 63.1951L44.9084 63.1085H44.797L44.3394 62.7622H44.2776H44.1539C44.797 62.6385 45.0939 62.7622 45.6134 61.5253C43.9807 62.3788 42.7563 59.2867 46.0091 59.3609C47.5428 60.1524 48.1736 62.2303 45.8113 63.5785H45.6876H45.5763H45.4649H45.3413M43.7334 69.5401C43.7262 69.495 43.7262 69.4491 43.7334 69.404L43.8199 69.4782L43.7334 69.5401ZM37.1286 59.2495C37.1258 59.2948 37.1258 59.3403 37.1286 59.3856C37.1286 59.3856 37.1286 59.3856 37.0544 59.3856V59.3114H37.1163M48.2478 72.0509C47.9699 71.8494 47.7726 71.5557 47.6913 71.2222H48.2107C48.185 71.4937 48.185 71.767 48.2107 72.0385M51.5131 69.0577C51.67 68.7988 51.8105 68.5303 51.9336 68.2537H51.9955C51.8965 69.1195 53.0591 69.9235 51.6615 71.9643C51.7339 70.9683 51.684 69.9673 51.5131 68.9835M62.7312 59.2743V59.3485C62.7312 59.3485 62.7312 59.6206 62.7312 59.7814L61.8778 60.2266C61.865 60.1364 61.865 60.0448 61.8778 59.9545H61.9397C61.9846 59.9635 62.0308 59.9635 62.0757 59.9545C62.2118 59.9545 62.1499 60.0164 62.5952 59.6082C62.6586 59.5504 62.6983 59.471 62.7065 59.3856M65.7491 48.9095C65.8852 49.0209 66.2934 49.5032 66.7881 50.1464L66.516 50.0474C66.2389 49.7045 65.9828 49.3452 65.7491 48.9714M63.9805 50.2082C64.038 50.2855 64.0878 50.3684 64.1289 50.4556C64.0883 50.3764 64.0552 50.2936 64.0299 50.2082M32.0328 51.7172C31.9177 51.7052 31.8016 51.7052 31.6865 51.7172C32.5399 50.6906 33.8634 49.0827 34.1602 48.8724C34.0489 49.1074 32.9234 50.5917 32.0699 51.7667M30.0786 59.4845H29.6581C29.6426 59.6864 29.5577 59.8767 29.418 60.0232C29.2782 60.1697 29.0922 60.2634 28.8913 60.2885L28.7552 60.2143L28.6439 60.1153L28.5449 59.9916C28.4636 59.8313 28.4293 59.6512 28.446 59.4722C28.458 59.2919 28.5324 59.1214 28.6563 58.9898C28.5633 58.901 28.4765 58.8059 28.3965 58.7053C28.3234 58.6027 28.2573 58.4953 28.1986 58.3838C27.9213 57.8235 27.8597 57.1808 28.0255 56.578C28.2257 56.0847 28.5674 55.6618 29.0077 55.3624C29.4479 55.0631 29.9668 54.9007 30.4992 54.8959C30.5981 54.698 30.4992 54.6238 31.4392 54.2898C31.4392 54.463 31.9215 54.5124 31.5381 55.4401C31.8191 55.7748 32.0064 56.1779 32.081 56.6085C32.1556 57.0391 32.1148 57.4818 31.9627 57.8915C31.8107 58.3012 31.5528 58.6633 31.2153 58.9409C30.8778 59.2186 30.4728 59.4019 30.0415 59.4722M48.9281 26.8938C49.6119 26.9341 50.2975 26.9341 50.9813 26.8938C52.1896 27.9428 53.6454 28.6665 55.2112 28.9964C54.2229 29.0606 53.2309 28.9518 52.2799 28.6748C52.2799 29.2932 53.6528 30.0106 54.531 30.1961C53.871 30.2812 53.2003 30.1872 52.5891 29.924C52.876 30.3857 53.3126 30.7349 53.826 30.9135C53.4284 31.3196 52.9428 31.629 52.4066 31.8177C51.8705 32.0064 51.2982 32.0694 50.7339 32.0019C50.8953 32.1979 51.1033 32.3504 51.3387 32.4455C51.5742 32.5406 51.8298 32.5751 52.082 32.5461C50.879 34.2319 50.1332 36.2006 49.9176 38.2603C49.6986 36.213 48.9623 34.2551 47.7778 32.5709C48.032 32.6009 48.2897 32.5668 48.5273 32.4718C48.7649 32.3767 48.975 32.2237 49.1384 32.0267C48.5757 32.098 48.0042 32.0367 47.4694 31.8477C46.9346 31.6587 46.4515 31.3473 46.0586 30.9382C46.5682 30.7529 47.0028 30.4052 47.2955 29.9488C46.6843 30.2119 46.0136 30.3059 45.3536 30.2209C46.2318 30.0353 47.5676 29.318 47.6047 28.6996C46.6496 28.9772 45.6535 29.086 44.661 29.0211C46.2442 28.6954 47.7151 27.9621 48.9281 26.8938ZM61.0491 61.9459C61.039 61.8761 61.039 61.8053 61.0491 61.7356C61.0371 61.7607 61.0308 61.7882 61.0308 61.816C61.0308 61.8438 61.0371 61.8713 61.0491 61.8964M61.0491 62.0077C61.0329 62.0382 61.0244 62.0721 61.0244 62.1067C61.0244 62.1412 61.0329 62.1751 61.0491 62.2056C61.0368 62.1195 61.0368 62.032 61.0491 61.9459V62.0077ZM76.3365 40.7959C75.4549 40.3781 74.4714 40.2235 73.5041 40.3506C74.2214 40.1724 74.8757 39.7999 75.395 39.274C75.9143 38.7481 76.2786 38.0893 76.4478 37.3698C75.5789 37.1525 74.6699 37.1525 73.801 37.3698C74.4084 37.0383 74.92 36.5556 75.2862 35.9684C75.6524 35.3812 75.8608 34.7093 75.8912 34.018C74.8793 33.9933 73.8756 34.205 72.9599 34.6364C74.9636 33.5356 75.681 30.9259 74.6173 29.4417C74.0112 29.8003 71.1789 32.6822 70.7212 33.0038C72.5147 30.6043 75.0007 27.8956 72.1807 24.9519C70.8726 27.6134 69.3199 30.1474 67.5426 32.5214C67.4299 32.3662 67.2755 32.2461 67.0973 32.1751C66.6442 33.403 65.8714 34.4876 64.8586 35.3167C64.7848 35.1149 64.685 34.9237 64.5618 34.7477C57.3386 39.1632 63.5228 46.6832 57.4128 43.8014C57.7039 43.7531 57.9762 43.6262 58.2005 43.4344C58.4247 43.2427 58.5923 42.9933 58.6853 42.7133C58.7782 42.4332 58.7929 42.1332 58.7278 41.8454C58.6626 41.5576 58.5202 41.2931 58.3157 41.0803C57.7591 41.4143 57.3881 42.5027 55.3844 40.9938C55.5987 41.1023 55.8389 41.1493 56.0782 41.1294C56.3176 41.1096 56.5468 41.0238 56.7404 40.8816C56.9339 40.7393 57.0842 40.5462 57.1745 40.3236C57.2648 40.101 57.2917 39.8578 57.252 39.6209C54.4073 41.068 54.0486 36.1082 56.6707 34.0551C56.9552 34.624 60.0473 32.9172 60.307 35.564C61.4573 34.9085 61.0368 33.8572 59.5649 33.449C60.8018 33.6593 64.067 36.4669 64.302 32.8801C63.7578 34.1788 61.6305 33.1522 59.4289 32.8801C59.9195 32.5732 60.4996 32.4416 61.0746 32.5068C61.6496 32.5719 62.1856 32.8299 62.5952 33.2388C62.9083 32.9616 63.1242 32.5914 63.2113 32.1825C63.2983 31.7735 63.252 31.3475 63.0789 30.9668C62.9059 30.5862 62.6154 30.2711 62.2501 30.0678C61.8847 29.8646 61.4638 29.7838 61.0491 29.8374C61.0583 29.7652 61.0486 29.6918 61.0209 29.6245C60.9932 29.5571 60.9485 29.4981 60.8912 29.4532C60.8338 29.4083 60.7658 29.3791 60.6937 29.3684C60.6217 29.3577 60.5481 29.3659 60.4802 29.3922C60.4836 29.3336 60.4731 29.275 60.4494 29.2212C60.4257 29.1674 60.3897 29.1201 60.3441 29.083C62.657 29.2932 64.6855 27.0669 63.5476 23.9377C64.1489 24.3035 64.8107 24.559 65.5018 24.6922C66.3428 26.164 63.9557 27.9451 65.7739 30.0848C65.7975 30.2764 65.7724 30.4709 65.7011 30.6503C65.6298 30.8297 65.5144 30.9883 65.3657 31.1114C66.1449 30.9259 67.3694 30.4435 66.182 28.2543C66.3799 29.5777 68.1857 27.4998 68.297 29.4911C70.7707 27.4998 66.5902 28.1677 67.5673 26.7825C68.3589 25.6693 68.9897 24.5809 66.1573 23.9748C65.5265 21.7485 60.3689 21.5011 62.0262 25.6074C62.4962 26.5846 63.0157 28.2667 60.1339 28.8109V28.5264C60.5668 27.7472 61.6428 25.5456 59.3423 25.1375C59.2062 25.0632 59.3423 25.1375 58.8352 25.1375V25.3353H58.6868V25.0632C58.6868 24.9643 59.0084 24.8901 58.6868 24.284H58.8599C58.7357 24.1636 58.6238 24.031 58.526 23.8882C58.6668 23.984 58.7992 24.0916 58.9218 24.2098V22.973C58.7975 23.0931 58.6653 23.2047 58.526 23.3069C58.6203 23.1615 58.7325 23.0285 58.8599 22.9111H57.6231C57.747 23.0319 57.8588 23.1645 57.957 23.3069C57.8151 23.2029 57.6789 23.0915 57.5489 22.973V24.2098C57.6722 24.0838 57.8091 23.9718 57.957 23.8759C57.8549 24.0153 57.7433 24.1475 57.6231 24.2717H57.7962C57.7962 24.3953 57.4747 24.4572 57.7962 25.0509V25.323H57.6355V25.1251C57.4128 25.0632 57.6355 25.1251 57.1407 25.1251C56.077 25.6198 54.9639 26.1269 56.3368 28.514V28.6996C54.899 28.1538 53.5924 27.3109 52.5026 26.2259V25.4219C53.3684 24.284 54.8526 20.6477 51.5255 20.1653C51.431 20.0994 51.3216 20.0581 51.2071 20.0452C51.0926 20.0322 50.9768 20.048 50.8699 20.0911V20.4003H50.5236V20.0169H50.3381C50.3381 19.9056 51.0926 19.6706 50.4618 18.7059H50.7339C50.5346 18.5185 50.3711 18.2964 50.2515 18.0503C50.4964 18.1665 50.7184 18.3257 50.907 18.5203V16.999C50.7272 17.1982 50.5083 17.3582 50.2639 17.469C50.3776 17.2227 50.5371 17.0002 50.7339 16.8135H49.1755C49.3723 17.0002 49.5318 17.2227 49.6455 17.469C49.3991 17.3553 49.1767 17.1958 48.9899 16.999V18.5575C49.1833 18.3684 49.4043 18.2099 49.6455 18.0875C49.5348 18.3356 49.3749 18.5586 49.1755 18.743H49.4476C49.4476 18.9161 48.7302 19.1511 49.5713 20.054H49.3734V20.4375H49.0147V20.1282C48.9079 20.0851 48.792 20.0693 48.6775 20.0823C48.563 20.0952 48.4536 20.1365 48.3591 20.2025C46.1205 20.6601 45.5268 22.6761 47.382 25.459V26.2753C46.3117 27.3785 45.0049 28.2243 43.5602 28.749V28.5635C43.9931 27.7843 45.0691 25.5827 42.7563 25.1746C42.6326 25.1003 42.7563 25.1746 42.2615 25.1746V25.3725H42.1131V25.1003C42.1131 25.0014 42.4223 24.9272 42.1131 24.3211H42.2863C42.1661 24.1969 42.0546 24.0647 41.9523 23.9253C42.0977 24.0247 42.2343 24.1365 42.3605 24.2593V23.0225C42.2334 23.1443 42.0969 23.256 41.9523 23.3564C42.0466 23.211 42.1588 23.078 42.2863 22.9606H41.0494C41.1771 23.0778 41.2893 23.2108 41.3834 23.3564C41.2387 23.256 41.1023 23.1443 40.9752 23.0225V24.2593L41.3834 23.9377C41.2856 24.0805 41.1737 24.2131 41.0494 24.3335H41.2597C41.2597 24.4572 40.9505 24.519 41.2597 25.1127V25.3848H41.1113V25.1869C40.8763 25.1251 41.1113 25.1869 40.6041 25.1869C39.5405 25.6817 38.4149 26.2011 39.8002 28.5759V28.8603C35.5207 29.5777 40.8392 18.0875 33.7768 24.0243C30.2765 23.7398 33.4552 27.8338 31.8226 27.5864C31.266 27.5122 30.3013 28.3532 31.637 29.5406C31.2907 28.6501 32.3792 29.1324 33.752 28.3038C33.5665 29.1819 32.2555 30.3446 34.5684 31.1609C34.4254 31.0331 34.3141 30.8738 34.2433 30.6957C34.1725 30.5175 34.144 30.3253 34.1602 30.1343C35.5084 28.5264 34.321 27.1782 34.4323 24.7417C35.1002 24.5828 35.736 24.3109 36.3123 23.9377C36.6957 26.4114 34.4199 28.4522 39.5157 29.083C39.4702 29.1201 39.4341 29.1674 39.4105 29.2212C39.3868 29.275 39.3763 29.3336 39.3797 29.3922C39.3118 29.3659 39.2382 29.3577 39.1661 29.3684C39.0941 29.3791 39.0261 29.4083 38.9687 29.4532C38.9114 29.4981 38.8667 29.5571 38.839 29.6245C38.8113 29.6918 38.8015 29.7652 38.8107 29.8374C37.9202 29.8993 35.496 31.0743 37.3018 33.2017C37.7113 32.7928 38.2473 32.5348 38.8223 32.4697C39.3973 32.4045 39.9775 32.5361 40.4681 32.843C39.2313 32.2864 37.3513 34.9332 35.5949 32.843C35.5207 34.4138 37.1657 35.5146 40.332 33.4119C38.8602 33.8201 38.4397 34.8714 39.5899 35.5269C39.8002 34.0674 40.097 34.0798 43.2139 34.018C44.3889 34.8096 47.1099 40.3753 42.6449 39.5838C42.6053 39.8207 42.6321 40.0639 42.7225 40.2865C42.8128 40.509 42.9631 40.7022 43.1566 40.8445C43.3502 40.9867 43.5793 41.0725 43.8187 41.0923C44.0581 41.1121 44.2983 41.0652 44.5126 40.9567C44.4013 41.0556 42.781 42.5398 41.5813 41.0432C41.3768 41.256 41.2343 41.5205 41.1692 41.8083C41.1041 42.096 41.1188 42.3961 41.2117 42.6762C41.3046 42.9562 41.4723 43.2056 41.6965 43.3973C41.9207 43.5891 42.1931 43.716 42.4841 43.7643C38.0192 45.8917 39.3178 43.1335 39.5405 39.2622C38.9592 38.4211 36.7328 36.4669 35.3105 34.7106C35.1872 34.8866 35.0875 35.0778 35.0136 35.2796C33.9973 34.4538 33.2237 33.3682 32.7749 32.138C32.5987 32.2123 32.4451 32.3317 32.3297 32.4843C30.5524 30.1103 28.9996 27.5763 27.6915 24.9148C25.2178 27.0298 26.6031 29.8622 29.2005 32.9667C28.7552 32.6451 25.9228 29.7632 25.3044 29.4046C24.2531 30.9011 24.9705 33.4985 26.9618 34.5993C26.0509 34.1667 25.0509 33.9549 24.0428 33.9809C24.0611 34.6771 24.2599 35.3566 24.6198 35.9529C24.9798 36.5492 25.4884 37.0417 26.096 37.3822C25.2271 37.1649 24.3181 37.1649 23.4492 37.3822C23.6211 38.1031 23.9895 38.7622 24.5136 39.2862C25.0376 39.8102 25.6967 40.1787 26.4176 40.3506C25.4543 40.2245 24.4751 40.3791 23.5976 40.7959C23.7926 41.4804 24.1967 42.0868 24.7533 42.5303C25.3099 42.9739 25.9913 43.2323 26.702 43.2696C25.7243 43.3353 24.8106 43.7788 24.1542 44.5064C24.4726 44.9405 24.8931 45.2894 25.3785 45.5224C25.8639 45.7554 26.3992 45.8652 26.9371 45.8422C26.55 45.9724 26.1941 46.1814 25.8918 46.456C25.5895 46.7306 25.3474 47.0649 25.1807 47.4377C25.9352 48.0438 26.8876 48.4272 29.0768 47.648C26.6031 48.6869 27.0607 49.194 26.6773 50.2701C27.642 50.9256 29.5592 50.604 31.4763 48.7735C31.0805 49.5527 28.0255 50.3195 28.9284 52.6448H29.287C29.2536 52.6801 29.2283 52.7224 29.2128 52.7685C28.7057 52.6448 27.4689 52.5706 26.7392 54.3145C26.5536 54.1909 26.096 54.3145 25.4034 55.3411C25.3998 55.407 25.3998 55.4731 25.4034 55.539C25.4034 55.6132 25.4034 55.539 25.4034 55.7369V55.9101L25.4899 56.0832L25.5889 56.2193L25.7249 56.343C25.6053 56.5202 25.5174 56.7169 25.4652 56.9243C25.4673 56.949 25.4673 56.9738 25.4652 56.9985C25.4516 57.1425 25.4516 57.2874 25.4652 57.4314C25.4696 57.4601 25.4696 57.4893 25.4652 57.518C25.4542 57.571 25.4542 57.6257 25.4652 57.6788C25.4652 57.6788 25.4652 57.7777 25.4652 57.9261C25.4677 57.9549 25.4677 57.9839 25.4652 58.0127C25.4652 58.0745 25.5271 58.1611 25.6136 58.3095C25.6159 58.3342 25.6159 58.3591 25.6136 58.3838V58.458L25.7249 58.5693C25.8209 58.6689 25.9289 58.7562 26.0465 58.829H26.1207C26.0438 58.9951 26.0139 59.179 26.0342 59.3609V59.4351C26.0366 59.4639 26.0366 59.4928 26.0342 59.5216V59.5959C26.0889 59.6977 26.1646 59.7867 26.2562 59.8571C26.3479 59.9274 26.4535 59.9775 26.566 60.004C26.4909 60.1585 26.4487 60.327 26.4423 60.4988C26.4423 60.4988 26.4423 60.4988 26.4423 60.6843C26.4524 60.7811 26.4731 60.8765 26.5042 60.9688C26.5042 60.9688 26.5042 60.9688 26.5042 61.0677C26.6274 61.2916 26.8239 61.4663 27.0607 61.5624H27.1226H27.2339H27.3452H28.347H28.4089H28.8913H28.9902C28.9902 61.5624 28.9902 61.5624 29.1757 61.414C29.2669 61.3352 29.3461 61.2436 29.4107 61.1419H29.6334H29.7694H29.856C29.856 61.1419 29.856 61.1419 30.0168 61.1419C30.1532 61.135 30.2855 61.0924 30.4002 61.0182H30.462H30.5239H30.5857C30.6213 60.9706 30.6544 60.921 30.6847 60.8698C30.7628 60.8782 30.8416 60.8782 30.9197 60.8698H31.0186H31.1794H31.3402C31.4833 60.8573 31.6244 60.8283 31.7607 60.7832H31.8473L32.6018 61.5253H33.0594L33.9376 59.6701C34.1355 59.7938 33.9376 59.6701 34.4942 59.9298C34.4814 59.9868 34.4814 60.046 34.4942 60.103L37.1781 61.3398C37.1723 61.3767 37.1723 61.4142 37.1781 61.4511V61.5253C37.1781 61.5253 37.1781 61.5253 37.1781 61.5995C37.1575 61.6353 37.1466 61.6758 37.1466 61.717C37.1466 61.7583 37.1575 61.7988 37.1781 61.8345C37.1716 61.8458 37.1682 61.8586 37.1682 61.8716C37.1682 61.8847 37.1716 61.8975 37.1781 61.9088C37.3142 62.1561 37.1781 62.4035 37.8955 62.3911C38.0192 62.2922 38.0439 62.3911 38.2047 61.6985C38.2913 61.9211 38.1428 61.8098 38.1057 62.5395C38.1382 62.588 38.1801 62.6295 38.229 62.6614C38.2779 62.6933 38.3327 62.7149 38.3902 62.7251C38.3902 62.7251 38.4644 62.7251 38.687 62.7251C38.7613 62.7251 38.8973 62.7251 38.8726 62.5272C38.8726 62.5272 38.8107 62.7251 39.0705 62.9353C39.0705 62.9353 39.1447 62.9353 39.4044 62.9353H39.4663C39.5899 62.9353 39.5405 63.0095 39.7631 62.7993C39.9857 62.589 39.7631 62.7993 39.8373 62.3664L44.8589 64.704C44.4136 64.5556 40.7649 68.4764 41.5194 65.1616C40.9876 65.2359 40.0228 65.9038 40.0228 67.3385C38.786 67.524 37.2276 71.2593 38.3531 71.383C38.5041 70.5854 38.9446 69.8717 39.5899 69.3793C39.5899 70.0966 39.4168 70.0595 40.2826 71.3335C40.2084 71.6303 37.4749 72.2611 37.4626 73.1393C37.8707 73.6216 39.2436 72.3972 40.3568 72.0014V72.1869C40.7402 72.0632 40.6041 72.1869 41.1484 71.6427L41.7297 71.3459C41.8772 71.7265 42.1348 72.0546 42.4697 72.2881C42.8046 72.5217 43.2015 72.6501 43.6097 72.6569C43.1097 73.2398 42.4301 73.64 41.6778 73.7945C40.9255 73.949 40.1432 73.849 39.4539 73.5103C39.4539 74.9203 44.2528 75.984 45.267 72.6322C46.0586 72.9785 45.8978 74.2153 48.5818 73.2259C48.8816 73.8778 49.3411 74.4436 49.9176 74.8709C50.5137 74.4725 50.9921 73.9215 51.3028 73.2753C51.6862 73.4732 54.1476 74.3514 54.9144 72.0385C55.5947 72.459 57.5118 73.3743 58.2786 71.0985L58.7362 71.3087C58.9341 71.4448 58.4765 71.6674 59.602 72.1003C59.5314 71.9673 59.4973 71.8179 59.5031 71.6674L63.0776 73.3372C63.2384 73.3372 63.0776 73.3372 63.696 73.3372H63.8568C63.8568 73.3372 63.8568 73.3372 63.931 73.3372H64.0052C64.0052 73.3372 64.0052 73.3372 64.1289 73.2506L64.2402 73.1269L64.3268 72.9909C64.3214 72.9664 64.3214 72.9411 64.3268 72.9166C64.3249 72.8919 64.3249 72.8671 64.3268 72.8424C64.322 72.8221 64.322 72.8009 64.3268 72.7806C64.3268 72.7806 64.3268 72.6816 64.3268 72.5456C64.3268 72.5456 64.3268 72.5456 64.3268 72.3972C64.3126 72.3468 64.2873 72.3003 64.2526 72.2611C64.2193 72.1879 64.1683 72.1241 64.1041 72.0756C64.1041 72.0756 64.1041 72.0756 63.9681 71.989L63.6836 71.853L62.8055 71.4201L63.1889 70.6037L65.007 71.4201L67.0231 67.1406V66.9427L66.4418 66.6706C67.926 66.3366 69.2741 61.8222 66.8005 61.2409C66.4105 61.3389 65.9984 61.295 65.6378 61.1172C65.6378 61.5377 66.4418 62.2551 66.4418 62.2551C66.6026 62.5024 66.6397 62.8735 65.3905 62.0201C69.2989 66.2006 62.3231 65.8048 60.8512 63.0961C60.9749 62.9848 60.9873 62.9972 61.0368 62.688C61.0368 62.8364 61.1605 62.8611 61.2347 62.8859C61.3831 62.8859 61.2347 62.8859 61.5315 62.8859C61.8284 62.8859 61.5315 62.8859 61.8531 62.6632C61.9273 62.5024 61.7912 62.5272 61.7418 61.8593V61.6861C61.7418 62.0695 61.5686 61.884 62.0262 62.5024C62.0262 62.5024 62.756 62.6138 62.7189 61.9459C62.7395 61.9101 62.7504 61.8696 62.7504 61.8284C62.7504 61.7871 62.7395 61.7466 62.7189 61.7109C62.7189 61.7109 62.7189 61.7109 62.7189 61.4511C62.9123 61.2782 63.0464 61.0489 63.1023 60.7956H63.2012C63.2583 60.808 63.3173 60.808 63.3744 60.7956C63.3744 60.7956 63.3744 60.7956 63.4486 60.709L63.6712 60.5977C63.7352 60.6176 63.8044 60.6119 63.8643 60.5819C63.9243 60.552 63.9703 60.5 63.9928 60.4369L69.0762 57.889L69.1504 58.0251L70.6718 57.2335L70.6099 57.1345L71.2283 56.8253C71.0309 56.5474 70.8728 56.2436 70.7583 55.9224L70.1523 56.2317L70.0905 56.108L68.5444 56.578L68.631 56.7264L63.6836 59.2001C63.6723 59.1936 63.6595 59.1901 63.6465 59.1901C63.6335 59.1901 63.6207 59.1936 63.6094 59.2001C63.6094 59.2001 63.6094 59.2001 63.6094 59.1259C63.6094 59.0022 63.6094 59.0393 63.5228 58.7672C63.5253 58.7342 63.5253 58.7012 63.5228 58.6682C63.5228 58.4827 63.5228 58.5693 62.991 58.3467L62.756 58.1859C62.756 58.1859 62.756 58.1859 62.6818 58.1116C62.6076 58.0374 62.6818 58.1116 62.4715 58.1116H62.3726C62.2984 58.1116 62.2984 58.1116 62.286 58.2353C62.2736 58.359 62.2118 58.2353 62.1747 58.3219C61.9644 57.3819 61.8655 56.6274 59.9855 56.009C60.4431 54.7722 62.9786 54.6609 63.2012 57.3201C63.2631 56.9367 63.4115 54.8464 64.067 57.6417C64.1383 57.2473 64.349 56.8917 64.6607 56.6398C64.6607 56.6398 65.0689 56.0956 64.5247 55.0319C64.6634 55.0608 64.7969 55.1109 64.9205 55.1803C65.2173 54.6238 65.8728 54.4259 65.7739 53.7332C66.5144 54.1045 67.3219 54.3232 68.1486 54.3764L68.0373 54.2651C68.0428 54.2323 68.0428 54.1989 68.0373 54.1661C68.1017 54.2459 68.1766 54.3167 68.2599 54.3764C68.4455 54.3764 67.4807 54.7722 68.3465 55.3288C68.4949 55.2422 67.827 55.873 68.5939 55.9719C68.5939 55.9719 68.4455 56.2688 68.5939 56.4543L69.8307 55.8111C69.6328 55.7122 67.5549 54.4259 69.9791 53.2509C70.1298 53.0849 70.2286 52.8786 70.2636 52.6572C70.4745 52.6046 70.6898 52.5715 70.9068 52.5582C71.3891 51.3214 70.0039 49.7135 68.3589 48.6869C69.5957 49.3301 71.1294 51.544 73.1578 50.1835C72.7744 49.1074 73.2568 48.6003 70.7583 47.5614C72.9476 48.3406 73.8999 47.9572 74.6544 47.3511C74.4988 46.9775 74.2681 46.6398 73.9766 46.3589C73.6851 46.0781 73.3391 45.8601 72.9599 45.7185C73.498 45.7426 74.0336 45.6333 74.5192 45.4002C75.0047 45.1672 75.4251 44.8176 75.7428 44.3827C75.0864 43.6552 74.1726 43.2116 73.1949 43.1459C73.9057 43.1086 74.587 42.8502 75.1437 42.4066C75.7003 41.9631 76.1044 41.3567 76.2994 40.6722" fill="#808D9C"/>
<path d="M72.391 53.2632C72.1465 53.3857 71.9314 53.5596 71.7606 53.7732C71.5898 53.9867 71.4673 54.2347 71.4015 54.5001L71.2778 54.5867L71.216 54.7598C71.173 54.7415 71.1267 54.732 71.0799 54.732C71.0332 54.732 70.9869 54.7415 70.9439 54.7598C70.5852 54.9206 70.7831 55.3288 70.7831 55.3288C70.7831 55.3288 70.9439 55.774 71.0676 56.0338C71.1956 56.2784 71.3403 56.5139 71.5005 56.7388C71.5005 56.7388 71.7849 57.048 72.0447 56.9119C72.1001 56.8814 72.1465 56.8366 72.1791 56.7823C72.2117 56.728 72.2293 56.6661 72.2302 56.6027H72.3663H72.6136C72.9068 56.7061 73.2211 56.7352 73.5283 56.6874C73.8355 56.6396 74.126 56.5163 74.3739 56.3287C74.6217 56.141 74.8192 55.8948 74.9485 55.6121C75.0779 55.3294 75.1351 55.019 75.1151 54.7088C75.0951 54.3985 74.9985 54.0981 74.8338 53.8343C74.6692 53.5706 74.4418 53.3518 74.1719 53.1975C73.9019 53.0433 73.598 52.9584 73.2872 52.9504C72.9764 52.9425 72.6685 53.0117 72.391 53.1519" fill="#808D9C"/>
<path d="M68.4702 56.578C68.2599 56.244 68.396 56.108 68.396 56.108C68.3335 56.1047 68.2733 56.0832 68.2228 56.0461L67.5426 56.3925C67.4189 56.4667 67.1839 56.6151 67.1468 56.7759C67.5976 56.8625 68.0645 56.7927 68.4702 56.578Z" fill="#808D9C"/>
<path d="M68.1857 56.0214C68.0497 55.9101 68.0125 55.8235 68.0373 55.6998C68.062 55.5761 68.0373 55.4772 68.1857 55.4153H68.062C68.062 55.4153 67.691 55.4153 67.6291 55.4153C67.2155 55.4811 66.8269 55.6561 66.5036 55.9224C66.887 56.3182 67.7404 56.1946 68.1857 56.0709" fill="#808D9C"/>
<path d="M68.0126 55.3411C67.9502 55.295 67.899 55.2356 67.8626 55.1671C67.8262 55.0986 67.8056 55.0228 67.8023 54.9453C67.7954 54.8683 67.8076 54.7908 67.8378 54.7196C67.868 54.6484 67.9153 54.5857 67.9755 54.5372C67.2253 54.4405 66.4632 54.4994 65.7368 54.7104C65.9456 54.9209 66.1973 55.0839 66.4747 55.1885C66.7522 55.2931 67.0489 55.3367 67.3447 55.3164H68.0126" fill="#808D9C"/>
<path d="M72.6755 58.5693C72.2302 58.5693 71.9581 58.928 71.5252 58.928C71.3491 58.9315 71.175 58.8903 71.0192 58.808C70.8634 58.7258 70.7311 58.6054 70.6347 58.458C70.4295 58.0566 70.3853 57.5921 70.511 57.1593L69.2742 57.8148C69.2742 58.0745 69.6452 58.1364 69.6452 58.1364C69.6049 58.2036 69.5836 58.2806 69.5836 58.359C69.5836 58.4374 69.6049 58.5144 69.6452 58.5816C69.7689 58.7919 70.0657 58.7053 70.0657 58.7053C70.0657 58.7053 70.0657 59.1506 70.2389 59.3237C70.3193 59.3717 70.4112 59.397 70.5048 59.397C70.5984 59.397 70.6903 59.3717 70.7707 59.3237C70.7668 59.4413 70.7879 59.5583 70.8327 59.6671C70.8775 59.7759 70.9449 59.8738 71.0305 59.9545C71.1104 60.0038 71.2025 60.0298 71.2964 60.0298C71.3903 60.0298 71.4824 60.0038 71.5623 59.9545C71.5623 59.9545 71.6613 60.2761 71.8221 60.3503C71.9179 60.371 72.0178 60.3619 72.1084 60.3244C72.199 60.2868 72.276 60.2225 72.3292 60.1401C72.3586 60.2724 72.4142 60.3975 72.4928 60.508C72.5714 60.6185 72.6714 60.712 72.7868 60.7832C72.8927 60.8235 73.007 60.8367 73.1194 60.8216C73.2317 60.8064 73.3384 60.7635 73.43 60.6966C73.7763 60.4369 73.566 60.8327 73.5289 60.9316C73.3805 61.4264 73.2073 61.8964 73.0465 62.3787C72.9639 62.5614 72.9211 62.7596 72.9211 62.9601C72.9211 63.1605 72.9639 63.3587 73.0465 63.5414C73.0465 63.5414 73.2444 63.764 73.4052 63.7269C73.5413 63.1827 73.7268 62.6508 73.8752 62.1066C74.0923 61.5021 74.2173 60.8683 74.2463 60.2266C74.2481 59.7829 74.1096 59.35 73.8505 58.9898C73.729 58.823 73.5653 58.6916 73.3762 58.609C73.187 58.5264 72.9794 58.4956 72.7744 58.5198" fill="#808D9C"/>
<path d="M69.4597 58.1982C69.4597 58.1982 69.2865 58.1982 69.1257 57.8643C68.7125 58.0646 68.3807 58.4009 68.1857 58.8167C68.3731 58.848 68.5656 58.813 68.7299 58.7177C68.9631 58.6154 69.1903 58.4998 69.4102 58.3714C69.4017 58.314 69.4017 58.2556 69.4102 58.1982" fill="#808D9C"/>
<path d="M69.8802 58.928C69.8739 58.887 69.8739 58.8453 69.8802 58.8043C69.7716 58.8393 69.6548 58.8393 69.5463 58.8043C69.4913 58.7742 69.4459 58.7292 69.4153 58.6746C69.3847 58.6199 69.37 58.5577 69.3731 58.4951C68.9897 58.8043 68.4084 59.3856 68.5073 59.9298C68.9157 59.8327 69.2886 59.6227 69.5834 59.3238C69.6769 59.2137 69.7636 59.098 69.8431 58.9775" fill="#808D9C"/>
<path d="M70.0905 59.4227C69.9734 59.3128 69.9026 59.1625 69.8926 59.0022C69.8926 59.0022 69.5586 59.5217 69.5215 59.5588C69.3298 59.7805 69.1894 60.0417 69.1103 60.324C69.0312 60.6062 69.0153 60.9024 69.0639 61.1914C69.663 60.7342 70.16 60.1571 70.5234 59.4969C70.4508 59.5219 70.3731 59.5281 70.2975 59.5152C70.2218 59.5022 70.1506 59.4704 70.0905 59.4227Z" fill="#808D9C"/>
<path d="M71.1789 60.1648C71.1037 60.1659 71.0293 60.1484 70.9624 60.1139C70.8956 60.0794 70.8382 60.0289 70.7955 59.9669C70.7345 59.9052 70.6866 59.8317 70.6547 59.7509C70.6228 59.6701 70.6076 59.5837 70.61 59.4969C70.61 59.4969 70.4121 59.8185 70.3997 59.8185C69.9352 60.4526 69.6919 61.2218 69.7071 62.0077C69.9486 61.8558 70.162 61.6634 70.3379 61.4388C70.4121 61.4388 71.1542 60.2019 71.1542 60.2019" fill="#808D9C"/>
<path d="M71.4015 61.3522L71.9086 60.4988C71.8412 60.5058 71.7731 60.4958 71.7105 60.4699C71.6479 60.444 71.5927 60.4029 71.5499 60.3504C71.4937 60.2809 71.4516 60.2011 71.4262 60.1154C71.3772 60.125 71.3268 60.125 71.2778 60.1154L70.9562 60.6348C70.5402 61.396 70.3033 62.242 70.2636 63.1085C70.4157 62.9711 70.5525 62.8176 70.6718 62.6509C70.882 62.3417 71.4015 61.414 71.4015 61.414" fill="#808D9C"/>
<path d="M72.4899 60.7956C72.3472 60.6542 72.2411 60.4802 72.1807 60.2885C72.1344 60.3548 72.07 60.4063 71.9952 60.4369C71.9086 60.5606 71.3891 61.5377 71.3891 61.5377C70.981 62.2922 70.3873 63.9248 70.6594 64.3701C71.1278 63.82 71.4962 63.1921 71.7478 62.5148L72.4899 60.7956Z" fill="#808D9C"/>
<path d="M72.6755 62.8735L73.4547 60.7709C73.3403 60.8783 73.1942 60.9459 73.0382 60.9638C72.8823 60.9816 72.7247 60.9487 72.5889 60.8698C72.5889 60.8698 72.0818 62.1067 71.7974 62.8117C71.4283 63.6243 71.2913 64.5233 71.4016 65.409C71.5831 65.2809 71.7316 65.1113 71.8345 64.9143C71.9192 64.7714 71.9936 64.6226 72.0571 64.469L72.6755 62.8735Z" fill="#808D9C"/>
<path d="M72.7126 63.1456C72.3568 63.9356 72.0992 64.7664 71.9458 65.6193C71.9632 66.1413 72.072 66.6562 72.2674 67.1406L73.2568 63.9371C73.2568 63.9371 72.7745 63.9371 72.7126 63.195" fill="#808D9C"/>
<path d="M49.9175 41.9709H43.3622V55.5762C43.3622 57.2583 44.0549 58.0498 45.502 58.0498H47.6665C48.1866 58.079 48.6843 58.2717 49.0885 58.6004C49.4927 58.9291 49.7829 59.3771 49.9175 59.8804C50.022 59.3629 50.2969 58.8954 50.6982 58.5524C51.0994 58.2094 51.604 58.0107 52.1315 57.988H54.3083C55.743 57.988 56.448 57.1964 56.448 55.5143V41.9091L49.9175 41.9709Z" fill="white"/>
<path d="M49.9175 41.9709H43.3622V55.5762C43.3622 57.2583 44.0549 58.0498 45.502 58.0498H47.6665C48.1866 58.079 48.6843 58.2717 49.0885 58.6004C49.4927 58.9291 49.7829 59.3771 49.9175 59.8804C50.022 59.3629 50.2969 58.8954 50.6982 58.5524C51.0994 58.2094 51.604 58.0107 52.1315 57.988H54.3083C55.743 57.988 56.448 57.1964 56.448 55.5143V41.9091L49.9175 41.9709Z" stroke="white" stroke-width="0.03" stroke-miterlimit="10"/>
<path d="M47.246 54.9948H46.8873C46.8873 54.8217 46.7513 54.7598 46.7389 54.5743C46.7389 53.9188 46.4792 54.1785 47.11 52.954C47.7037 52.5335 47.2831 52.5088 48.7055 51.7172C48.8787 51.8409 48.8416 52.2367 48.7055 52.3851C48.7376 52.4524 48.7625 52.5228 48.7797 52.5954C48.8841 52.6508 48.9969 52.6884 49.1137 52.7067C49.3858 52.9417 49.3116 52.8304 50.0784 54.0672C50.0784 54.0672 50.0784 53.9806 50.0784 53.9312L50.2145 54.0548H50.1031C50.1031 54.1414 50.1031 54.2651 50.1773 54.2651C50.2516 54.2651 49.8681 54.2651 49.7939 54.3764C49.6878 54.3843 49.5875 54.4279 49.5095 54.5001C49.3981 54.5001 49.3487 54.5001 49.2621 54.5867C49.831 54.3517 47.5923 51.7048 47.2089 54.8464C47.2089 54.8464 47.2089 54.8464 47.0852 54.8464C46.9616 54.8464 47.246 54.9206 47.246 55.0196M50.4123 53.6219L49.8434 51.5812C49.925 51.4284 49.9715 51.2594 49.9795 51.0864C50.1155 51.0864 50.2639 51.0864 50.4123 51.0864C50.5114 51.2329 50.5671 51.4044 50.5731 51.5812C50.6845 51.5812 50.4371 51.7667 50.5731 52.1006C50.7958 52.1006 50.635 52.1006 51.0308 52.0017C51.3647 52.0017 51.2163 52.0017 51.6492 52.5459C51.7666 52.9097 51.942 53.2522 52.1687 53.5601C51.946 53.5601 52.1687 53.5601 51.9955 53.8693C51.9955 53.8693 51.9955 53.6714 52.1934 53.7333C52.1934 53.7333 52.1934 53.8446 52.1934 53.894C52.1934 53.9435 52.1934 53.894 52.045 54.1538C52.045 54.1538 52.045 54.0919 52.045 54.0548C52.045 54.0177 52.045 54.0548 52.2181 54.0548C52.2325 54.1284 52.2325 54.2039 52.2181 54.2775C52.2181 54.2775 52.1068 54.3393 52.0821 54.4012C52.0272 54.3871 51.97 54.3853 51.9144 54.396C51.8588 54.4067 51.8062 54.4296 51.7605 54.463C51.7605 54.463 51.7605 54.463 51.9213 54.463C52.0821 54.463 51.9213 54.5248 51.9213 54.5867C51.9213 54.5867 51.7976 54.5867 51.7481 54.5867C51.6987 54.5867 51.4637 54.3393 51.241 54.364C51.0184 54.3888 51.241 54.364 50.9813 54.364C51.0679 54.364 50.9813 54.364 51.1792 54.364C51.3771 54.364 51.3029 54.2527 51.4018 54.2404C51.4108 54.2727 51.4108 54.3069 51.4018 54.3393C51.4018 54.463 51.7605 54.1785 51.3152 54.0425C51.0696 54.1463 50.8468 54.2977 50.6597 54.4877C50.6597 54.3888 50.7463 54.2651 50.6597 54.1785C50.8081 54.1785 50.8081 53.9312 50.9937 53.9064C51.1792 53.8817 50.9937 54.0054 50.9937 54.0301C51.1668 54.0301 50.9937 54.0301 51.105 53.7209C51.0308 53.7209 51.105 53.659 50.8576 53.7209C50.6102 53.7827 50.7339 53.6343 50.5608 54.0301C50.4989 54.0301 50.6845 53.894 50.4495 53.6467C50.4495 53.6467 50.3505 53.6467 50.2887 53.7085M47.4068 43.4056C47.2831 43.6035 47.3326 43.4056 47.481 44.0364C47.3945 44.1972 47.2584 44.1354 47.3079 44.6672C47.011 44.828 45.3784 44.5435 45.6505 45.6072C45.6505 45.6072 45.1558 46.1267 45.6505 46.4112C45.6505 46.5719 45.4526 46.6462 45.7742 46.8812C45.7999 46.9276 45.8375 46.9662 45.8832 46.9932C45.9288 47.0201 45.9809 47.0343 46.0339 47.0343C46.087 47.0343 46.139 47.0201 46.1847 46.9932C46.2304 46.9662 46.268 46.9276 46.2937 46.8812C46.6771 46.708 46.541 47.8954 47.0976 47.1904C47.236 47.2217 47.3797 47.2217 47.5181 47.1904L47.6789 47.3017C47.8273 47.1904 47.6789 47.178 48.0995 47.3017C48.1327 47.2581 48.1758 47.2231 48.2253 47.1994C48.2748 47.1757 48.3291 47.1642 48.3839 47.1656L48.5076 47.6233H48.4087C48.4087 48.0067 48.6313 48.1922 48.6684 48.5509C48.1166 48.5393 47.5686 48.6447 47.0605 48.8601C46.6152 48.019 44.7971 47.9943 44.9084 50.0969C44.8838 50.1205 44.8654 50.1498 44.8546 50.1821C44.8438 50.2144 44.8411 50.2488 44.8466 50.2825C44.9255 50.2557 45.0004 50.2182 45.0692 50.1712C45.0179 50.5363 45.0179 50.9068 45.0692 51.2719C45.2312 51.1394 45.3444 50.9566 45.3908 50.7525C45.4563 50.9618 45.4563 51.1863 45.3908 51.3956C45.4773 51.1483 45.9226 51.2719 46.1205 50.5175C46.1205 50.7648 46.2071 51.0617 46.0463 51.2101C46.1019 51.1875 46.1524 51.1538 46.1947 51.1112C46.9616 51.6554 45.7 48.353 46.9492 49.194C46.4545 49.9238 47.815 51.4946 46.6029 52.8304C46.5629 53.3949 46.3611 53.936 46.0216 54.3888C46.0216 54.3888 46.0216 54.3888 46.0834 54.3888C46.0834 54.3888 46.0834 54.3888 46.1452 54.3888C46.2071 54.3888 46.1452 54.3888 46.0834 54.7722C45.6629 55.0938 46.2689 53.5354 45.1063 53.5354C45.9968 53.7333 44.9579 56.3801 47.5058 55.7864V55.9472C47.4091 56.0382 47.2957 56.1096 47.1718 56.1575C48.0376 55.9596 49.93 57.8025 51.241 56.4419C51.241 56.244 51.7852 56.6398 51.6492 55.8977C51.7358 55.8977 51.6492 55.7617 52.0079 55.7369H52.0944C52.0944 55.7369 52.1934 55.7369 52.3789 55.7369C52.5645 55.7369 52.3789 55.9101 52.9355 56.009C52.9839 55.9478 53.0253 55.8815 53.0592 55.8112C53.5416 55.6133 54.4939 56.0338 54.5558 55.0938C54.5148 55.1666 54.4694 55.2368 54.4197 55.304C54.4197 55.304 54.4197 55.304 54.531 55.1927C54.531 55.2917 54.4321 55.403 54.3826 55.4154C54.3331 55.4277 54.531 55.0938 54.3826 54.933C54.39 55.0232 54.369 55.1136 54.3224 55.1912C54.2758 55.2689 54.206 55.33 54.1229 55.3659C54.1229 55.3659 54.1847 55.1185 54.1229 55.069C54.1243 55.1046 54.1172 55.1401 54.1022 55.1724C54.0871 55.2046 54.0645 55.2328 54.0363 55.2546C54.0363 55.2546 54.0363 55.1185 54.0363 55.1062C54.0248 55.165 53.9983 55.2199 53.9593 55.2654C53.9203 55.311 53.8701 55.3456 53.8137 55.3659C53.8137 55.3659 53.8137 55.3659 53.8137 55.2546C53.8137 55.1433 53.8137 55.3288 53.7023 55.3288C53.591 55.3288 53.7023 55.2175 53.6405 55.1927C53.5787 55.168 53.6405 55.2793 53.5663 55.304C53.4921 55.3288 53.5663 55.2051 53.5045 55.1804C53.4426 55.1556 53.5045 55.1804 53.5045 55.2546C53.4762 55.1402 53.421 55.0342 53.3437 54.9454C53.4302 54.9454 53.3437 54.8217 53.4302 54.7846C53.5168 54.7475 53.4302 54.7846 53.5416 54.7846C53.6529 54.7846 53.5416 54.698 53.5416 54.6733C53.5416 54.6485 53.5416 54.6733 53.6158 54.6733C53.69 54.6733 53.6158 54.599 53.6158 54.5619C53.6158 54.5248 53.6776 54.5619 53.7147 54.4877C53.7538 54.5009 53.789 54.5236 53.8171 54.5539C53.8452 54.5841 53.8653 54.6209 53.8755 54.6609C53.9061 54.5517 53.9061 54.4362 53.8755 54.3269C53.8755 54.3269 53.8755 54.3269 53.9621 54.3269C54.0487 54.3269 54.061 54.5001 54.0487 54.5496C54.0363 54.599 54.0487 54.3764 54.0487 54.2898C54.0487 54.2033 54.1229 54.4012 54.1723 54.463C54.1723 54.0548 53.69 54.1661 53.0839 54.6485C53.0839 54.5372 52.9108 54.4877 52.8489 54.364C52.8965 54.2838 52.93 54.1959 52.9479 54.1043C52.9479 54.1043 52.8242 54.1043 52.7995 53.993C52.8111 53.9526 52.8111 53.9097 52.7995 53.8693C52.7995 53.8693 52.6881 53.8693 52.6387 53.8693C52.503 53.031 52.3045 52.2042 52.045 51.3956C52.045 51.5564 52.045 51.3956 52.045 51.3956L52.3418 51.5193C52.5521 51.5812 53.1952 50.7525 54.061 50.5793C54.2342 50.7772 53.8631 51.074 53.6776 51.6677C53.6034 51.6677 53.6776 51.7914 53.6034 51.8656C53.2571 51.8656 53.2942 51.4946 53.1334 52.3851C53.4797 52.3851 53.1334 52.3851 53.826 52.2614C54.3579 51.8904 54.3826 51.4451 54.6423 50.1712C54.1352 49.5651 54.5558 49.8125 52.7995 50.1712C52.9726 49.7506 52.7252 49.899 52.4779 48.3777C52.651 48.4643 52.651 48.5138 52.985 48.1427C52.9231 48.1427 53.1334 48.4767 53.3808 48.2417C53.3808 48.2417 53.3808 48.2417 53.455 48.2417C53.5292 48.2417 53.455 48.2417 53.6281 48.2417C54.0858 48.0685 54.2342 47.9943 53.8013 46.4483C53.8013 46.4483 53.8879 46.4483 53.8755 46.4483H54.0858C54.0116 46.2998 54.0858 46.0896 53.9868 45.9659L54.1352 45.8175C54.0185 45.7642 53.8924 45.7348 53.7642 45.7309C53.7642 45.7309 53.7642 45.669 53.4426 45.6196C53.4426 45.533 53.5787 45.4464 53.6405 45.3475C53.5048 45.3335 53.368 45.3335 53.2323 45.3475C53.2323 45.3475 53.2323 45.3475 52.9108 45.2733C52.5892 45.1991 52.6139 44.9641 51.6739 45.2733C51.7285 45.2705 51.7829 45.2829 51.8309 45.3091C51.8789 45.3353 51.9188 45.3743 51.946 45.4217C51.575 45.4217 51.6987 45.2485 51.105 45.6196C51.0542 45.6363 51.0084 45.6654 50.9716 45.7043C50.9349 45.7431 50.9085 45.7905 50.8947 45.8422H51.0431C50.9689 45.9412 50.5484 45.8422 50.4989 46.0525C50.6721 46.0525 50.5979 46.0525 50.8947 46.0525C50.6721 46.1391 50.8947 46.0525 50.4 46.4854C50.3726 46.2976 50.2996 46.1194 50.1875 45.9664C50.0754 45.8133 49.9275 45.69 49.7568 45.6072C49.7568 45.6072 49.6826 45.6072 49.7568 45.3598C49.831 45.3598 49.8805 45.434 50.0166 45.2856C50.6597 45.7556 50.8081 43.4056 49.3487 44.2219C49.8929 43.6159 51.2658 45.0135 50.0289 45.2733L50.1279 45.1867C50.1279 45.1867 50.1279 44.9764 50.3134 44.9393C50.3201 44.8653 50.3201 44.7907 50.3134 44.7167C50.3288 44.6838 50.3369 44.6479 50.3369 44.6116C50.3369 44.5752 50.3288 44.5393 50.3134 44.5064C50.3134 44.5683 50.3134 44.6672 50.2392 44.7043C50.165 44.7414 50.2392 44.5064 50.2392 44.4693C50.264 44.5329 50.264 44.6036 50.2392 44.6672C50.2392 44.6672 50.2392 44.6054 50.2392 44.5559C50.2392 44.5064 50.2392 44.6177 50.2392 44.6425C50.2392 44.6672 50.165 44.5559 50.0908 44.5559C49.8063 44.5559 49.596 44.9269 49.5342 45.1743C49.5342 45.1743 49.2868 45.1743 49.3858 44.9146C49.2868 45.0259 49.1137 45.063 49.3858 44.6425C49.2497 44.6425 49.1879 44.8404 49.1137 44.9641C49.1137 44.8651 48.9158 44.7662 49.2745 44.5188C49.1508 44.5188 49.2745 44.5188 49.0271 44.6672C48.891 44.5435 49.1013 44.3209 49.6084 44.1601C49.6084 44.1601 49.6084 44.1601 49.3239 44.2591C49.1631 44.2591 48.6808 44.8156 49.1755 44.9764C49.1755 45.1372 49.3363 44.9764 49.1137 45.2856C48.724 44.981 48.2723 44.7656 47.7902 44.6548V44.5312C47.8521 44.3951 47.9016 44.4075 47.6666 44.1477C47.6666 44.1477 47.6666 44.1477 47.4934 44.1477C47.3202 44.1477 47.8026 43.7643 47.5305 43.2943L47.4068 43.4056Z" fill="#808D9C"/>
<path d="M66.9736 61.7727C66.8128 61.7727 66.7757 62.119 67.0726 61.9829C67.0726 61.884 67.1592 61.884 66.9736 61.7727ZM66.9736 62.1314C66.9736 62.1314 66.4789 61.8222 66.9736 61.649C66.986 61.5253 67.4684 62.0201 66.9736 62.1314ZM63.8568 55.8111C63.9928 55.9348 63.9928 55.8111 63.8568 55.8111C63.7207 55.6874 63.696 56.3182 63.8568 55.8111ZM63.8568 56.1822C63.6218 56.3182 63.5105 55.304 64.1042 55.9224C64.1042 56.0585 64.1165 55.9348 63.8568 56.1822ZM73.2197 63.8258L72.1807 67.054C71.989 66.3951 71.9308 65.7045 72.0094 65.0227C72.0879 64.341 72.3018 63.6818 72.6384 63.0837C72.7002 63.8753 73.1826 63.8258 73.1826 63.8258M71.9457 64.4195C71.8055 64.7874 71.576 65.1147 71.2778 65.3719C71.0305 64.4072 71.6984 62.5643 72.5147 60.8079C72.6541 60.8843 72.8141 60.9146 72.9718 60.8946C73.1295 60.8746 73.2769 60.8053 73.3928 60.6966C73.1455 61.4387 72.5642 63.0219 72.0076 64.4195H71.9457ZM71.6613 62.5148C71.4045 63.1923 71.032 63.82 70.5605 64.37C70.6059 62.9422 71.0752 61.5601 71.9086 60.3998C71.9597 60.4053 72.0113 60.398 72.0588 60.3785C72.1063 60.3591 72.1482 60.3282 72.1807 60.2885C72.2511 60.4578 72.3517 60.6129 72.4776 60.7461L71.6613 62.5148ZM70.5481 62.5766C70.4229 62.7385 70.2821 62.8877 70.1276 63.0219C70.1922 61.9649 70.5475 60.9462 71.1542 60.0782C71.2032 60.0879 71.2536 60.0879 71.3026 60.0782C71.3026 60.0782 71.2407 60.3874 71.7973 60.4616C71.451 61.0306 71.4139 61.1172 70.5605 62.6137M70.2389 61.3769C70.063 61.6015 69.8496 61.794 69.6081 61.9458C69.5807 61.1602 69.8205 60.3884 70.2884 59.7566L70.4863 59.4227C70.4863 59.2866 70.4863 60.0658 71.0676 60.1029C71.0676 60.1029 70.3131 61.3398 70.2389 61.3398M70.3997 59.3979C70.0326 60.0627 69.5314 60.644 68.9278 61.1048C68.8762 60.811 68.8916 60.5093 68.973 60.2223C69.0544 59.9353 69.1996 59.6704 69.3978 59.4474C69.3978 59.4474 69.7689 58.8908 69.7689 58.8908C69.7689 58.8908 69.6576 59.4103 70.3997 59.3979ZM68.4702 59.8061C68.3836 59.2619 68.9649 58.6682 69.3607 58.359C69.4597 58.4703 69.2247 58.6187 69.8555 58.7177C69.8474 58.7627 69.8474 58.8087 69.8555 58.8537C69.7707 58.9697 69.6799 59.0812 69.5834 59.1877C69.2839 59.4894 68.9075 59.7033 68.4949 59.8061M69.3731 58.2848C69.0154 58.555 68.5841 58.7103 68.1363 58.7301C68.3374 58.3102 68.6785 57.9734 69.101 57.7777C69.2494 58.1487 69.4349 58.1116 69.4349 58.1116C69.4025 58.1644 69.3814 58.2234 69.3731 58.2848ZM73.7763 58.9651C74.1102 59.2743 74.0978 59.769 74.1844 60.2019C74.0607 61.0801 74.3823 59.9422 73.3186 63.7145C71.7726 63.2569 74.6544 61.6985 72.2426 60.1029C72.2426 60.1029 71.7849 60.6966 71.4634 59.9298C71.5623 59.7814 70.6965 60.3256 70.6718 59.2866C70.7831 59.1382 69.8802 59.67 69.9544 58.6435C70.1152 58.6435 69.1876 58.7424 69.571 58.0622C69.571 58.0622 69.2371 58.0622 69.1876 57.7406L70.4986 57.0851C70.4986 57.3077 70.2884 59.7443 72.6755 58.4951C72.8848 58.4752 73.0958 58.5091 73.2884 58.5935C73.481 58.6779 73.6489 58.8101 73.7763 58.9774M62.756 48.5014L65.9718 49.6022C65.9718 49.6022 65.6502 49.9732 66.2563 50.4803C64.9452 49.7753 64.6236 50.8266 62.756 48.5014ZM65.9965 51.4079C65.1088 51.2147 64.289 50.7877 63.6218 50.1711C64.8586 49.9608 66.9118 50.839 68.6681 51.2719C68.161 51.4574 68.1239 51.6306 68.062 51.9151L65.9965 51.4079ZM64.0052 51.4079C65.3866 51.4231 66.7565 51.6612 68.062 52.1129C68.0913 52.2903 68.1588 52.4591 68.2599 52.6077C68.1879 52.5822 68.1093 52.5822 68.0373 52.6077C66.6079 52.5575 65.217 52.1308 64.0052 51.3708M67.2334 53.3498C66.3807 53.2366 65.5624 52.9413 64.8339 52.484C65.8732 52.4451 66.9138 52.5156 67.9384 52.6943C67.9384 52.6943 67.7652 52.9169 67.9384 53.3003L67.8271 53.4116L67.2334 53.3498ZM67.6044 54.3145C66.8129 54.303 66.0458 54.0386 65.4152 53.5601C65.6825 53.4512 65.9677 53.3925 66.2563 53.3869C66.3552 53.3869 67.7776 53.4858 67.7776 53.4858C67.7776 53.4858 67.4684 53.9311 67.9878 54.3393L67.6044 54.3145ZM67.2828 55.1803C66.9851 55.2016 66.6862 55.1585 66.4066 55.0539C66.127 54.9493 65.8733 54.7857 65.6626 54.5743C66.4017 54.3634 67.1759 54.3045 67.9384 54.4011C67.8518 54.5619 67.5549 54.6856 67.9384 55.2051C67.9384 55.2051 67.3199 55.2051 67.2581 55.2051M66.4047 55.7987C66.6219 55.6091 66.8752 55.4653 67.1494 55.3761C67.4236 55.2868 67.713 55.2539 68.0002 55.2793C68.0002 55.2793 68.0744 55.2793 68.1115 55.2793C68.1486 55.2793 67.7899 55.4277 68.1115 55.8853C67.6415 56.0214 66.8005 56.1327 66.4047 55.7369M67.0726 56.6645C67.2457 56.4666 66.9489 56.5285 68.161 55.9224C68.2138 55.9573 68.2725 55.9824 68.3342 55.9966C68.3342 55.9966 68.2105 56.1203 68.4207 56.4543C68.0094 56.6789 67.5327 56.7533 67.0726 56.6645ZM65.9965 50.0227C65.9965 50.0227 65.9965 49.7258 65.9965 49.6269C67.1543 49.9949 68.2795 50.4582 69.3607 51.0122C69.2989 51.3832 70.5976 51.3585 69.8678 53.2261C69.8678 53.6466 67.2705 54.2279 69.7318 55.7987C69.2865 56.0337 68.4949 56.3801 68.4207 56.4543C68.2352 56.2687 68.4207 55.9595 68.4207 55.9595C68.4207 55.9595 67.6415 55.8606 68.1857 55.3164C68.4207 55.3906 67.3199 54.834 68.0868 54.364C68.3218 54.4629 67.2581 53.8074 68.0249 53.3498C68.2228 53.3498 67.3571 52.8427 68.3465 52.6077C67.9507 50.8637 69.3113 51.7419 65.9718 50.0227M65.3286 66.9179L64.5371 68.5629L63.5228 68.0806L64.0671 66.955C64.4779 67.0029 64.893 67.0029 65.3039 66.955M66.0831 66.7077L65.8728 67.1406L65.4028 66.9303C65.6358 66.8766 65.8635 66.8021 66.0831 66.7077ZM59.4413 67.8085L60.6781 65.3348C61.2174 65.8261 61.8207 66.2421 62.4715 66.5716L61.4326 68.7732L59.4413 67.8085ZM59.0084 69.7503L56.5347 68.5753C56.7821 68.5011 56.7078 68.5753 57.6602 68.0435L59.4907 68.8969L59.0084 69.7503ZM48.4952 69.4906C48.0154 69.6658 47.5018 69.7291 46.9937 69.6755C46.4857 69.6219 45.9966 69.4529 45.5639 69.1814L49.5094 67.2272L50.1773 67.5364C49.8741 68.3714 49.2758 69.0665 48.4952 69.4906ZM48.6807 66.7943L45.4278 68.4393C45.5382 67.9507 45.7463 67.4895 46.0396 67.0835C46.333 66.6775 46.7055 66.3351 47.1347 66.0769L48.6807 66.7943ZM53.7023 61.5253C54.3616 61.2715 55.0796 61.2112 55.7719 61.3514C56.4643 61.4916 57.1022 61.8266 57.6107 62.3169L52.1934 65.075C52.3294 63.7145 52.6881 61.9706 53.7023 61.5253ZM52.4655 65.8295L58.1302 63.0219C58.3528 65.4956 56.2378 68.6124 52.4655 65.8295ZM30.0292 59.4474H29.621C29.7942 60.0906 27.4813 60.8327 28.0997 58.8166C27.7974 58.4586 27.6031 58.0221 27.5392 57.5579C27.4754 57.0938 27.5447 56.621 27.739 56.1947C27.9334 55.7683 28.2449 55.406 28.6372 55.1498C29.0295 54.8936 29.4865 54.754 29.955 54.7474C30.0415 54.0919 31.9463 53.8445 31.5134 55.5143C31.7697 55.8482 31.9365 56.2419 31.9981 56.6583C32.0597 57.0747 32.014 57.4999 31.8654 57.8937C31.7168 58.2875 31.4702 58.6369 31.1489 58.9088C30.8275 59.1807 30.4421 59.3661 30.0292 59.4474ZM74.9142 53.9806C74.7035 53.671 74.4107 53.4262 74.0687 53.2736C73.7267 53.1211 73.3489 53.0668 72.9778 53.1169C72.6067 53.167 72.2568 53.3194 71.9675 53.5572C71.6782 53.7949 71.4608 54.1086 71.3397 54.4629C70.7584 54.9206 70.6223 55.304 70.6594 55.6008L59.5278 61.2779C58.4271 60.3379 60.2328 50.2948 62.9292 57.2953C62.9292 57.0974 63.1147 54.6485 63.8073 57.6293C63.8849 57.2343 64.0995 56.8795 64.4134 56.6274C64.4134 51.3461 55.8173 52.5953 57.6478 60.3379C54.2465 58.1982 50.7092 60.6843 50.5113 64.704C49.5621 64.3582 48.5404 64.2603 47.5428 64.4195L34.7415 58.4579L34.086 58.1735L34.9765 56.3182C34.8529 56.3182 34.6055 56.1698 34.0242 55.8853C33.9737 55.6576 33.8731 55.444 33.7298 55.26C33.5864 55.076 33.4039 54.9263 33.1955 54.8216C33.3192 54.4506 33.3686 54.6608 32.676 53.5848C33.0347 52.9045 32.0823 50.8514 30.5363 52.5829C29.9426 52.2861 30.5363 52.4469 29.2994 52.9664C28.8047 52.8427 27.5802 52.7685 26.8876 54.4753C26.8876 54.4753 24.9705 54.4753 25.96 56.4543C25.4405 57.2582 25.1436 57.8148 26.3186 59.2495C26.195 59.6082 26.1455 59.4227 26.8505 60.4864C26.4918 61.1543 27.4318 63.195 28.9902 61.4758C29.5715 61.7727 28.9902 61.6119 30.2271 61.0924C30.4405 61.1903 30.6725 61.2409 30.9073 61.2409C31.1421 61.2409 31.3742 61.1903 31.5876 61.0924L32.5276 61.5377L33.3439 59.8185L45.4526 65.4214C44.667 66.2055 44.1626 67.2274 44.0178 68.3279C42.6078 66.1511 35.9042 67.8208 37.8336 71.4819C38.0934 70.245 39.9115 67.1777 43.4242 69.5524C30.9197 75.7366 39.6394 72.5579 43.82 70.109C43.6344 71.1356 43.5355 75.3656 38.9468 73.6587C39.825 75.9716 45.6134 75.6006 45.131 70.6285C48.6807 71.9519 49.8434 71.0985 51.5873 68.2785L62.9415 73.535C62.8797 73.535 64.9205 73.6464 63.6713 72.0014C63.6713 72.0014 63.226 71.7787 62.4344 71.42L62.8426 70.5666L64.7473 71.4448L66.8499 66.9922L66.2686 66.7201C67.8147 66.3985 69.1876 61.7727 66.6644 61.2408C66.276 61.3438 65.8636 61.3043 65.5018 61.1295C65.7121 61.7108 67.2705 63.3558 65.2544 62.0324C69.4473 67.4993 60.4307 64.6669 59.8247 62.2179L71.1047 56.6274C71.3149 56.8377 71.6613 56.9119 72.4034 56.7016C73.331 56.8748 75.4707 56.7016 74.877 54.1043" fill="#FABC42"/>
</svg>
