<svg width="100" height="100" viewBox="0 0 100 100" fill="none" xmlns="http://www.w3.org/2000/svg">
<rect width="100" height="100" rx="50" fill="black"/>
<path d="M43.5221 46.3237V43.3501C42.4241 43.2041 41.318 43.1286 40.2105 43.1239C26.6653 43.1239 15.6431 53.4898 15.6431 66.2309C15.6431 74.0453 19.7971 80.9651 26.1316 85.1475C21.89 80.8811 19.5303 75.2579 19.5342 69.4167C19.5342 56.8576 30.2418 46.6159 43.5221 46.3237Z" fill="#00F2EA"/>
<path d="M44.1733 79.1441C49.9004 79.1441 54.5702 74.5956 54.7832 68.9244L54.8031 18.312H64.0629C63.8647 17.2557 63.7641 16.1832 63.7623 15.1082L51.1171 15.1082L51.0952 65.7226C50.8841 71.3898 46.2104 75.9383 40.4853 75.9383C38.7677 75.9384 37.0757 75.5195 35.5547 74.7176C36.5403 76.0881 37.8355 77.2039 39.3338 77.9734C40.832 78.7429 42.4907 79.1441 44.1733 79.1441ZM81.3559 35.4917V32.6781C77.9565 32.6819 74.6291 31.6941 71.7775 29.8345C74.2803 32.7091 77.6389 34.6935 81.3559 35.4917Z" fill="#00F2EA"/>
<path d="M71.4011 30.5529C68.6205 27.3962 67.0849 23.3263 67.0839 19.1105H63.7045C64.1468 21.4431 65.0573 23.6607 66.3806 25.628C67.7038 27.5953 69.4121 29.271 71.4011 30.5529ZM40.1866 55.2607C34.332 55.2687 29.5886 59.9854 29.5826 65.8067C29.5888 67.7364 30.122 69.6275 31.1241 71.2736C32.1263 72.9197 33.559 74.2578 35.266 75.1419C33.9634 73.3586 33.2603 71.2046 33.2587 68.9924C33.2647 63.1692 38.0081 58.4505 43.8627 58.4445C44.9579 58.4445 46.0034 58.6246 46.9931 58.9328V46.1256C45.9559 45.9791 44.91 45.9029 43.8627 45.8975C43.6795 45.8975 43.4982 45.9095 43.317 45.9115V55.749C42.304 55.4285 41.2486 55.2639 40.1866 55.2607Z" fill="#FF004F"/>
<path d="M79.6712 37.1206V46.8941C73.3808 46.9035 67.2447 44.9367 62.1214 41.2689V66.8172C62.1214 79.5784 51.7066 89.9602 38.9062 89.9602C33.9576 89.9602 29.3696 88.4033 25.5999 85.7638C27.7761 88.0985 30.4064 89.9589 33.3277 91.2298C36.249 92.5007 39.3989 93.155 42.5822 93.152C55.3846 93.152 65.7994 82.7702 65.7994 70.011V44.4607C70.923 48.1278 77.059 50.0938 83.3493 50.0838V37.5108C82.113 37.5104 80.8803 37.3796 79.6712 37.1206Z" fill="#FF004F"/>
<path d="M63.3939 65.9767V40.3864C68.6662 44.0694 74.9369 46.0365 81.3579 46.0216V36.2361C77.5822 35.4508 74.155 33.4736 71.5764 30.5929C67.4503 27.9775 64.6026 23.8291 63.6986 19.1105H54.2456L54.2257 69.5688C54.0066 75.2199 49.2373 79.7545 43.3927 79.7545C39.8999 79.7505 36.6261 78.1095 34.5909 75.344C31.0184 73.517 28.7781 69.909 28.7761 65.9748C28.7821 60.1315 33.635 55.3988 39.629 55.3908C40.7442 55.3908 41.8155 55.5709 42.8311 55.8811V46.0096C29.9849 46.3037 19.6259 56.5755 19.6259 69.1705C19.6259 75.264 22.0533 80.8091 26.0082 84.9494C30.0241 87.6956 34.7715 89.1595 39.629 89.1497C52.7322 89.1497 63.3939 78.7539 63.3939 65.9767Z" fill="white"/>
</svg>
